<?xml version="1.0" encoding="UTF-8"?>
<!DOCTYPE svg PUBLIC "-//W3C//DTD SVG 1.1//EN" "http://www.w3.org/Graphics/SVG/1.1/DTD/svg11.dtd">
<!-- Creator: CorelDRAW -->
<svg xmlns="http://www.w3.org/2000/svg" xml:space="preserve" width="445.502mm" height="297.001mm" version="1.1" style="shape-rendering:geometricPrecision; text-rendering:geometricPrecision; image-rendering:optimizeQuality; fill-rule:evenodd; clip-rule:evenodd"
viewBox="0 0 44535.94 29690.62"
 xmlns:xlink="http://www.w3.org/1999/xlink"
 xmlns:xodm="http://www.corel.com/coreldraw/odm/2003">
 <defs>
  <style type="text/css">
   <![CDATA[
    .fil0 {fill:#FDE6E1}
    .fil22 {fill:#F7ABB1}
    .fil3 {fill:#FDE9E3;fill-rule:nonzero}
    .fil4 {fill:#FDE6E1;fill-rule:nonzero}
    .fil16 {fill:#FDE5D4;fill-rule:nonzero}
    .fil20 {fill:#FCC69C;fill-rule:nonzero}
    .fil19 {fill:#FBBD8B;fill-rule:nonzero}
    .fil1 {fill:#F7ABB1;fill-rule:nonzero}
    .fil18 {fill:#F9A54C;fill-rule:nonzero}
    .fil21 {fill:#F6A7AF;fill-rule:nonzero}
    .fil11 {fill:#F37C7B;fill-rule:nonzero}
    .fil5 {fill:#F27888;fill-rule:nonzero}
    .fil13 {fill:#F16665;fill-rule:nonzero}
    .fil17 {fill:#F16263;fill-rule:nonzero}
    .fil2 {fill:#DA576B;fill-rule:nonzero}
    .fil10 {fill:#DCDAD4;fill-rule:nonzero}
    .fil9 {fill:#B09B89;fill-rule:nonzero}
    .fil7 {fill:#978476;fill-rule:nonzero}
    .fil8 {fill:#322D2C;fill-rule:nonzero}
    .fil15 {fill:#6985C2;fill-rule:nonzero}
    .fil12 {fill:#50AFAC;fill-rule:nonzero}
    .fil14 {fill:#4A51A0;fill-rule:nonzero}
    .fil6 {fill:#222124;fill-rule:nonzero}
   ]]>
  </style>
 </defs>
 <g id="Camada_x0020_1">
  <metadata id="CorelCorpID_0Corel-Layer"/>
  <g id="_1944434735360">
   <rect class="fil0" x="-0.02" width="44535.94" height="29690.62"/>
   <path class="fil1" d="M42013.46 29690.62l-11956.06 0c-21.96,-19.13 -43.88,-38.19 -65.87,-57.19 -803.28,-693.29 -1653.1,-1272.87 -2691.36,-1431.97 -219.1,-33.57 -439.22,-46.42 -659.9,-46.42 -596.45,0 -1197.26,93.59 -1795.78,123.33 -85.64,4.29 -170.66,6.46 -254.66,6.46 -1296.47,0.04 -2381.39,-517.76 -2787.13,-1859.46 -181.15,-598.89 -224.61,-1229.38 -331.59,-1845.89 -227.97,-1313.46 -883.58,-2345.27 -2296.67,-2443.62 -100.92,-7.06 -203.12,-9.92 -306.32,-9.92 -244.03,0 -493.47,16.18 -743.69,32.39 -250.3,16.2 -501.47,32.41 -748.84,32.41 -598.73,0 -1175.56,-94.92 -1665.67,-514.67 -875.96,-750.03 -753.33,-2199.53 -1516.8,-3063.83l-1163.99 -2929.17c182.48,-1047.94 1389.61,-1655.61 2372.53,-1827.68 982.86,-172.08 2030.17,-175.36 2899.75,-664.68 1992.85,-1121.54 2271.56,-4319.49 4437.4,-5052.92 370.92,-125.53 755.97,-160.01 1146.94,-160.01 237.45,0 476.97,12.71 717.08,25.41 240.08,12.71 480.53,25.41 719.71,25.41 254.93,0 508.31,-14.49 757.97,-58.73 1291.89,-229.04 2475.67,-1127.33 3070.77,-2296.68 1267.63,-2490.8 2607.34,-4339.74 4324.19,-5673.18l8538 0c1393.08,0 2522.48,1129.39 2522.48,2522.56l0 24645.57c0,1393.09 -1129.4,2522.48 -2522.48,2522.48z"/>
   <path class="fil2" d="M25654.5 15959.49l2086.11 63.3c19.7,0.59 36.11,-14.83 36.76,-34.62 0.57,-19.68 -14.91,-36.11 -34.61,-36.68l-2086.06 -63.3c-19.7,-0.65 -36.19,14.85 -36.76,34.53 -0.63,19.71 14.86,36.2 34.56,36.77z"/>
   <path class="fil2" d="M26722.71 16949.4l7.57 -2005.39c0.06,-19.7 -15.83,-35.75 -35.54,-35.83 -19.71,-0.08 -35.75,15.84 -35.84,35.55l-7.56 2005.39c-0.06,19.7 15.83,35.77 35.54,35.83 19.71,0.08 35.75,-15.83 35.83,-35.55z"/>
   <path class="fil2" d="M27166.08 16431.4l-991.5 -1123.97c-13.07,-14.77 -35.63,-16.18 -50.39,-3.13 -14.77,13.07 -16.2,35.62 -3.14,50.39l991.5 1123.95c12.99,14.77 35.55,16.2 50.31,3.14 14.77,-13.06 16.2,-35.61 3.22,-50.38z"/>
   <path class="fil2" d="M26144.52 16460.17l1132.96 -999.43c14.79,-12.99 16.2,-35.54 3.15,-50.31 -13.07,-14.85 -35.63,-16.2 -50.39,-3.21l-1132.96 999.42c-14.77,13.06 -16.2,35.61 -3.13,50.38 13.05,14.79 35.6,16.2 50.37,3.15z"/>
   <path class="fil3" d="M26504.6 24270.3c0,236.44 -191.77,428.21 -428.23,428.21 -236.44,0 -428.22,-191.77 -428.22,-428.21 0,-236.46 191.78,-428.23 428.22,-428.23 236.46,0 428.23,191.77 428.23,428.23z"/>
   <path class="fil3" d="M36425.26 7497.95c0,118.25 -95.86,214.11 -214.11,214.11 -118.27,0 -214.11,-95.86 -214.11,-214.11 0,-118.27 95.84,-214.1 214.11,-214.1 118.25,0 214.11,95.83 214.11,214.1z"/>
   <path class="fil3" d="M28193.76 21677.15c0,118.19 -95.92,214.1 -214.11,214.1 -118.27,0 -214.13,-95.91 -214.13,-214.1 0,-118.27 95.86,-214.11 214.13,-214.11 118.19,0 214.11,95.84 214.11,214.11z"/>
   <path class="fil3" d="M43276.95 22057.78c0,118.25 -95.86,214.11 -214.11,214.11 -118.27,0 -214.13,-95.86 -214.13,-214.11 0,-118.27 95.86,-214.13 214.13,-214.13 118.25,0 214.11,95.86 214.11,214.13z"/>
   <path class="fil3" d="M43062.84 28552.61c0,118.25 -95.86,214.1 -214.13,214.1 -118.25,0 -214.1,-95.85 -214.1,-214.1 0,-118.27 95.85,-214.13 214.1,-214.13 118.27,0 214.13,95.86 214.13,214.13z"/>
   <path class="fil2" d="M24609.24 9401.22c0,67.87 -55.03,122.9 -122.82,122.9 -67.94,0 -122.97,-55.03 -122.97,-122.9 0,-67.94 55.03,-122.97 122.97,-122.97 67.79,0 122.82,55.03 122.82,122.97z"/>
   <path class="fil2" d="M36258.75 4500.34c0,67.87 -55.11,122.9 -122.97,122.9 -67.87,0 -122.84,-55.03 -122.84,-122.9 0,-67.88 54.97,-122.91 122.84,-122.91 67.86,0 122.97,55.03 122.97,122.91z"/>
   <path class="fil3" d="M28931.25 10995.16c0,67.88 -55.03,122.91 -122.99,122.91 -67.8,0 -122.82,-55.03 -122.82,-122.91 0,-67.88 55.02,-122.9 122.82,-122.9 67.96,0 122.99,55.02 122.99,122.9z"/>
   <path class="fil3" d="M22488.01 19845.26c0,67.86 -55.09,122.97 -122.97,122.97 -67.88,0 -122.9,-55.11 -122.9,-122.97 0,-67.87 55.02,-122.98 122.9,-122.98 67.88,0 122.97,55.11 122.97,122.98z"/>
   <path class="fil3" d="M25271.52 21149.72c0,67.94 -55.11,122.96 -122.99,122.96 -67.88,0 -122.96,-55.02 -122.96,-122.96 0,-67.82 55.08,-122.85 122.96,-122.85 67.88,0 122.99,55.03 122.99,122.85z"/>
   <path class="fil3" d="M43685.4 25983.22c0,67.86 -55.09,122.97 -122.97,122.97 -67.87,0 -122.96,-55.11 -122.96,-122.97 0,-67.89 55.09,-122.98 122.96,-122.98 67.88,0 122.97,55.09 122.97,122.98z"/>
   <path class="fil3" d="M42186.6 12137.13c0,67.85 -55.09,122.88 -122.96,122.88 -67.88,0 -122.99,-55.03 -122.99,-122.88 0,-67.88 55.11,-122.91 122.99,-122.91 67.87,0 122.96,55.03 122.96,122.91z"/>
   <path class="fil3" d="M33673.45 25412.24c0,67.88 -55.03,122.99 -122.82,122.99 -67.96,0 -122.97,-55.11 -122.97,-122.99 0,-67.88 55.01,-122.96 122.97,-122.96 67.79,0 122.82,55.08 122.82,122.96z"/>
   <path class="fil4" d="M16564.09 20436c0,67.94 -55.03,122.96 -122.9,122.96 -67.88,0 -122.89,-55.02 -122.89,-122.96 0,-67.8 55.01,-122.83 122.89,-122.83 67.87,0 122.9,55.03 122.9,122.83z"/>
   <path class="fil3" d="M18980.8 16338.12c0,67.88 -55.03,122.9 -122.9,122.9 -67.86,0 -122.89,-55.02 -122.89,-122.9 0,-67.88 55.03,-122.91 122.89,-122.91 67.87,0 122.9,55.03 122.9,122.91z"/>
   <path class="fil3" d="M21916.97 10856.41c0,67.88 -55.02,122.91 -122.9,122.91 -67.88,0 -122.91,-55.03 -122.91,-122.91 0,-67.88 55.03,-122.9 122.91,-122.9 67.88,0 122.9,55.02 122.9,122.9z"/>
   <polygon class="fil4" points="23792.48,15705.68 22949.22,16743.15 21612.27,16730.66 20788.44,15677.56 21098.12,14377.04 22308.09,13808.21 23507.21,14399.53 "/>
   <polygon class="fil4" points="33038.1,5105.92 32667.83,5561.57 32080.72,5556.07 31719.03,5093.66 31854.97,4522.53 32386.27,4272.73 32912.85,4532.38 "/>
   <path class="fil2" d="M26092.22 12977.74l25.19 -25.21 -529.94 -529.92 504.75 -504.67 504.66 504.67 -529.92 529.92 25.26 25.21 25.19 -25.21 -25.19 25.21 25.19 25.26 555.19 -555.14c6.65,-6.7 10.44,-15.84 10.44,-25.25 0,-9.43 -3.79,-18.57 -10.44,-25.27l-555.19 -555.12c-6.64,-6.64 -15.84,-10.42 -25.19,-10.42 -9.43,0 -18.63,3.78 -25.26,10.42l-555.13 555.12c-14,13.99 -14,36.54 0,50.52l555.13 555.14c6.63,6.64 15.83,10.43 25.26,10.43 9.35,0 18.55,-3.79 25.19,-10.43l-25.19 -25.26z"/>
   <polygon class="fil2" points="19980.01,13665.68 19736.14,13421.81 19980.01,13177.92 20223.9,13421.81 "/>
   <polygon class="fil2" points="37466.08,10239.84 37222.19,9995.96 37466.08,9752.09 37709.95,9995.96 "/>
   <polygon class="fil2" points="24940.35,18626 24696.46,18382.13 24940.35,18138.26 25184.22,18382.13 "/>
   <polygon class="fil2" points="37567.22,24228.68 37323.32,23984.81 37567.22,23740.93 37811.09,23984.81 "/>
   <polygon class="fil2" points="39851.11,4417.13 39607.22,4173.23 39851.11,3929.36 40094.98,4173.23 "/>
   <polygon class="fil2" points="31001.02,23119.5 30862.69,22981.1 31001.02,22842.86 31139.25,22981.1 "/>
   <polygon class="fil2" points="30501.42,28329.62 30363.1,28191.24 30501.42,28052.99 30639.66,28191.24 "/>
   <polygon class="fil2" points="22579.15,23128.35 22335.28,22884.47 22579.15,22640.58 22823.03,22884.47 "/>
   <path class="fil2" d="M26203.92 24235.54l-35.41 -4.21 -267.29 2248.57 -2213.23 -263.03 263.07 -2213.23 2248.64 267.3 4.23 -35.41 -35.41 -4.21 35.41 4.21 4.21 -35.49 -2284.12 -271.48c-19.54,-2.28 -37.33,11.7 -39.62,31.26l-271.48 2284.1c-2.37,19.56 11.64,37.33 31.18,39.61l2284.12 271.43c9.35,1.15 18.91,-1.56 26.31,-7.41 7.37,-5.81 12.23,-14.51 13.36,-23.79l271.5 -2284.02c1.08,-9.35 -1.64,-18.91 -7.42,-26.34 -5.85,-7.35 -14.49,-12.2 -23.83,-13.36l-4.21 35.49z"/>
   <path class="fil2" d="M19243.67 18911.93l6.78 -35.04c-42.61,-8.3 -209.68,-42.61 -365.64,-74.8 -155.94,-32.27 -300.9,-62.31 -301.18,-62.39l-7.28 34.98 35.68 1.92 37.19 -682.46c0.87,-16.46 -9.55,-31.4 -25.41,-36.11 -15.75,-4.78 -32.67,1.94 -41.03,16.13l-336.02 574.11 -589.03 -274.7c-14.49,-6.78 -31.75,-3.07 -42.11,9.07 -10.42,12.06 -11.57,29.68 -2.71,42.96l350.85 529.37 29.78 -19.7 -17.41 -31.12c-0.08,0 -137.76,76.95 -275.57,156.25 -68.95,39.59 -137.82,79.79 -189.91,111.33 -26.06,15.83 -47.82,29.39 -63.67,40.04 -7.99,5.42 -14.43,9.91 -19.84,14.2l-8.22 7.43 -5.34 6.7c-1.93,3.5 -5.65,8.22 -6.07,20.35l1.07 8.78c4.21,16.69 19.84,28.12 37.04,26.91l631.71 -42.75 -77.51 587.23c-2.21,16.48 7.43,32.47 23.12,38.2 15.69,5.71 33.32,-0.31 42.33,-14.37l331.67 -519.58 366.63 406.19c10.62,11.77 27.83,15.05 42.1,8.21 14.29,-6.94 22.27,-22.55 19.56,-38.12l-101.5 -595.3 531.37 -180.16c15.34,-5.14 25.25,-20.05 24.12,-36.18 -1.07,-16.12 -12.93,-29.55 -28.77,-32.61l-6.78 35.04 -11.5 -33.83 -560.18 189.84c-16.63,5.64 -26.7,22.55 -23.71,39.83l85.94 504.25 -315.69 -349.72c-7.41,-8.22 -18.41,-12.57 -29.46,-11.64 -11.07,0.91 -21.13,6.99 -27.12,16.33l-270.35 423.51 62.23 -471.04c1.35,-10.57 -2.07,-21.26 -9.35,-29.05 -7.37,-7.86 -17.78,-11.92 -28.49,-11.22l-675.23 45.77 2.43 35.61 34.61 -8.7 -34.11 8.56 35.18 0 -1.07 -8.56 -34.11 8.56 35.18 0 -33.68 0 28.4 18.18c1.36,-2.57 4.86,-6.64 5.28,-18.18l-33.68 0 28.4 18.18 -21.84 -13.98 18.91 17.92 2.93 -3.95 -21.84 -13.98 18.91 17.92 -4.43 -4.23 4 4.57 0.43 -0.34 -4.43 -4.23 4 4.57c2.01,-1.92 15,-11.21 32.33,-22.19 61.95,-39.61 189.71,-113.61 301.12,-177.14 111.55,-63.67 207.05,-117.04 207.25,-117.2 8.64,-4.83 14.93,-13.05 17.27,-22.67 2.35,-9.72 0.57,-19.85 -4.92,-28.12l-280.93 -423.75 503.74 234.89c16.63,7.79 36.56,1.57 45.91,-14.35l277.92 -474.92 -29.19 535.31c-0.93,17.61 11.13,33.26 28.4,36.88 0.14,0 580.62,120.42 667.76,137.33l6.78 -35.04 -11.5 -33.83 11.5 33.83z"/>
   <path class="fil2" d="M41096.96 25202.7l1292.4 39.17c19.71,0.59 36.12,-14.92 36.77,-34.62 0.56,-19.68 -14.92,-36.11 -34.62,-36.74l-1292.32 -39.13c-19.7,-0.63 -36.2,14.86 -36.76,34.56 -0.65,19.68 14.85,36.17 34.53,36.76z"/>
   <path class="fil2" d="M41772.71 25802.42l4.71 -1242.34c0.08,-19.71 -15.84,-35.69 -35.55,-35.77 -19.68,-0.07 -35.75,15.83 -35.83,35.54l-4.69 1242.29c-0.08,19.7 15.83,35.77 35.52,35.83 19.71,0.08 35.77,-15.84 35.84,-35.55z"/>
   <path class="fil2" d="M42044.07 25472.49l-614.31 -696.3c-13.05,-14.8 -35.6,-16.2 -50.37,-3.16 -14.77,13.07 -16.2,35.63 -3.13,50.39l614.28 696.31c12.99,14.77 35.54,16.12 50.31,3.13 14.79,-13.05 16.2,-35.61 3.22,-50.37z"/>
   <path class="fil2" d="M41409.94 25509.45l701.87 -619.14c14.86,-13.02 16.2,-35.55 3.22,-50.33 -13.07,-14.78 -35.63,-16.18 -50.39,-3.14l-701.87 619.08c-14.78,13.07 -16.2,35.62 -3.14,50.39 12.99,14.77 35.53,16.2 50.31,3.14z"/>
   <polygon class="fil4" points="30584.71,26410.09 29298.44,25928.46 28012.17,25446.85 29072.4,24573.77 30132.64,23700.68 30358.66,25055.38 "/>
   <path class="fil2" d="M34070 9139.5l-2.29 -35.63 -539.28 34.56 -111.05 -643.28c-2.87,-16.62 -17.13,-29.05 -34.05,-29.61 -16.85,-0.51 -31.91,10.93 -35.83,27.33l-152.1 633.5 -521.5 -29.41c-16.34,-0.93 -31.12,9.29 -36.05,24.9 -4.92,15.64 1.35,32.49 15.28,41.11l400.03 247.03 -153.94 560.69c-2.65,9.57 -1.15,19.84 4.07,28.26l15.83 13.86 15 3.28c9.07,-0.28 12.49,-2.2 15.48,-3.36 9.72,-4.63 12.37,-7.63 18.49,-12.28 20.12,-16.63 55.73,-50.94 100.29,-94.99 132.96,-131.4 337.8,-343.93 337.94,-344.01l-25.69 -24.76 -23.55 26.82 432.93 379.42 23.49 -26.82 -32.27 15.28 1.29 2.49 2.49 3.78 4.64 5.14c3.07,1.92 7,8.14 23.99,9.21l19.05 -5.57c10.2,-6.71 13.2,-14.63 14.69,-18.54l1.87 -9.86 0.08 -1.72c-0.23,-6.78 -0.87,-7.06 -1.08,-8.5l-1.21 -4.07c-1.44,-4.07 -4.94,-12.91 -10.79,-27.9 -40.32,-103.14 -182.06,-460.05 -182.06,-460.05l-33.2 13.13 19.34 29.98 449.02 -289.41c13.7,-8.78 19.62,-25.69 14.55,-41.11 -5.14,-15.5 -19.99,-25.55 -36.18,-24.5l2.29 35.63 -19.36 -29.98 -448.99 289.41c-14.27,9.21 -20.13,27.33 -13.85,43.2 0.14,0.2 48.17,121.18 96.28,242.73 24.12,60.73 48.17,121.61 66.24,167.36 8.99,22.92 16.55,42.04 21.77,55.45 2.63,6.64 4.63,12 6.05,15.5l1.44 3.85 0.14 0.44 25.27 -8.72 -25.55 7.71 0.28 1.01 25.27 -8.72 -25.55 7.71 32.41 -9.78 -32.92 8 0.51 1.78 32.41 -9.78 -32.92 8 34.47 -8.36 -35.46 0c0.2,6.72 0.79,7 0.99,8.36l34.47 -8.36 -35.46 0 35.61 0 -35.27 -5.06 -0.34 5.06 35.61 0 -35.27 -5.06 35.35 5.06 -30.63 -18.33c-4.13,7.27 -4.21,10.91 -4.72,13.28l35.35 5.06 -30.63 -18.33 30.63 18.33 -19.14 -30.18 -11.49 11.85 30.63 18.33 -19.14 -30.18 19.14 30.18 0 -35.69 -19.14 5.51 19.14 30.18 0 -35.69 0 35.69 23.91 -26.48c-3.08,-1.92 -6.94,-8.14 -23.91,-9.21l0 35.69 23.91 -26.48 -23.91 26.42 29.9 -19.34 -5.99 -7.08 -23.91 26.42 29.9 -19.34 -28.77 18.61 30.97 -14.69 -2.2 -3.93 -28.77 18.61 30.97 -14.69 -8.7 -11.58 -432.95 -379.42c-14.26,-12.55 -35.97,-11.63 -49.15,2.09 -0.09,0.06 -26.71,27.69 -67.03,69.23 -60.51,62.29 -151.8,155.86 -229.53,233.6 -38.83,38.9 -74.31,73.86 -100.63,98.79 -13.14,12.4 -24,22.39 -31.48,28.75l-7.71 6.29 -0.37 0.28 9.94 15.28 -7.71 -16.48 -2.23 1.21 9.94 15.28 -7.71 -16.48 13.7 29.39 0 -32.33c-9.35,0.37 -11.78,2.29 -13.7,2.94l13.7 29.39 0 -32.33 0 34.9 14.43 -31.82 -14.43 -3.08 0 34.9 14.43 -31.82 -14.51 32.11 29.92 -18.61 -15.42 -13.5 -14.51 32.11 29.92 -18.61 -30.35 18.83 34.42 9.49 161 -586.46c4.21,-15.26 -2.15,-31.46 -15.62,-39.82l-303.05 -187.2 410.82 23.18c17.2,1.01 32.68,-10.56 36.68,-27.25l118.62 -494.19 87.07 504.31c3.14,17.98 19.34,30.69 37.47,29.56l571.26 -36.62 -2.27 -35.61 -19.36 -29.98 19.36 29.98z"/>
   <path class="fil2" d="M28636.96 8065.36l1292.4 39.25c19.7,0.57 36.13,-14.91 36.76,-34.61 0.59,-19.7 -14.91,-36.12 -34.62,-36.76l-1292.32 -39.18c-19.7,-0.58 -36.19,14.92 -36.76,34.62 -0.65,19.68 14.86,36.12 34.54,36.68z"/>
   <path class="fil2" d="M29312.71 8665.1l4.72 -1242.3c0.08,-19.68 -15.84,-35.75 -35.55,-35.83 -19.68,-0.06 -35.75,15.83 -35.81,35.55l-4.72 1242.3c-0.08,19.68 15.84,35.75 35.55,35.83 19.68,0.06 35.75,-15.86 35.81,-35.55z"/>
   <path class="fil2" d="M29584.01 8335.2l-614.22 -696.36c-13.07,-14.77 -35.63,-16.12 -50.39,-3.14 -14.78,13.06 -16.2,35.61 -3.14,50.37l614.28 696.31c12.99,14.77 35.55,16.2 50.31,3.14 14.8,-13 16.2,-35.53 3.16,-50.32z"/>
   <path class="fil2" d="M28949.94 8372.19l701.87 -619.16c14.77,-12.99 16.2,-35.55 3.21,-50.37 -13.07,-14.79 -35.63,-16.14 -50.39,-3.16l-701.87 619.16c-14.77,12.99 -16.2,35.55 -3.14,50.31 13,14.78 35.55,16.2 50.32,3.22z"/>
   <path class="fil5" d="M37708.45 26841.16c-1415.93,0 -2567.88,1151.95 -2567.88,2567.9 0,95.15 5.38,189.07 15.52,281.56l-1289.87 0c-6.74,-93 -10.35,-186.85 -10.35,-281.56 0,-2124.31 1728.27,-3852.59 3852.58,-3852.59 2124.23,0 3852.5,1728.28 3852.5,3852.59 0,94.71 -3.61,188.56 -10.35,281.56l-1289.87 0c10.14,-92.49 15.52,-186.41 15.52,-281.56 0,-1415.95 -1151.93,-2567.9 -2567.8,-2567.9z"/>
   <path class="fil5" d="M44535.94 10251.03c-388.77,157.55 -813.71,244.54 -1259,244.54 -1852.61,0 -3354.48,-1501.81 -3354.48,-3354.48 0,-1852.67 1501.87,-3354.46 3354.48,-3354.46 445.29,0 870.23,86.97 1259,244.51l0 6219.88z"/>
   <path class="fil2" d="M41326.14 7283.85l-35.69 0c0,507.08 -205.41,965.8 -537.71,1298.16 -332.38,332.23 -791.09,537.65 -1298.18,537.73 -507.02,-0.08 -965.81,-205.49 -1298.1,-537.73 -332.3,-332.36 -537.71,-791.09 -537.71,-1298.16 0,-507.1 205.4,-965.81 537.71,-1298.18 332.29,-332.24 791.09,-537.65 1298.1,-537.71 507.1,0.06 965.8,205.46 1298.18,537.71 332.29,332.37 537.71,791.09 537.71,1298.18l71.38 0c0,-1053.39 -853.89,-1907.21 -1907.27,-1907.27 -1053.31,0.06 -1907.19,853.88 -1907.19,1907.27 0,1053.36 853.88,1907.18 1907.19,1907.25 1053.38,-0.07 1907.27,-853.89 1907.27,-1907.25l-35.69 0z"/>
   <path class="fil3" d="M41849.5 7283.85c0,236.44 -191.78,428.21 -428.22,428.21 -236.46,0 -428.23,-191.77 -428.23,-428.21 0,-236.46 191.77,-428.24 428.23,-428.24 236.44,0 428.22,191.78 428.22,428.24z"/>
   <path class="fil2" d="M16047.44 15713.76c332.01,-73.16 855.02,-177.43 1188.27,-250.87 19.19,-4.29 31.4,-23.34 27.11,-42.55 -4.21,-19.26 -23.27,-31.4 -42.53,-27.19 -332.04,73.24 -855.05,177.51 -1188.27,250.95 -19.2,4.21 -31.42,23.26 -27.13,42.53 4.21,19.2 23.26,31.42 42.55,27.13z"/>
   <path class="fil2" d="M15819.9 15306.22l633.43 -463.91c15.92,-11.63 19.42,-33.96 7.71,-49.82 -11.64,-15.9 -33.97,-19.4 -49.81,-7.71l-633.42 463.92c-15.92,11.64 -19.42,33.97 -7.71,49.81 11.64,15.91 33.97,19.42 49.8,7.71z"/>
   <path class="fil2" d="M15914.61 16173.25c281.21,193.13 320.18,240.81 604.53,436.15 16.26,11.13 38.47,7.06 49.61,-9.21 11.13,-16.26 7.06,-38.46 -9.23,-49.6 -281.28,-193.2 -320.25,-240.88 -604.52,-436.15 -16.26,-11.21 -38.46,-7.06 -49.6,9.21 -11.19,16.2 -7.06,38.4 9.21,49.6z"/>
   <polygon class="fil6" points="13104.58,15812.75 15293.25,15824.66 14127.53,18287.01 12084.53,18218.48 "/>
   <path class="fil7" d="M14134.76 18478.5l-119.27 166.87c-47.31,66.22 -123.69,105.55 -205.04,105.55l-2869.37 0 -1485.38 -1.5c-139.46,-0.14 -252.3,-113.55 -251.65,-253.07l4930.72 -17.84z"/>
   <path class="fil8" d="M14112.98 18462.93l-119.26 166.86c-42.33,59.25 -110.56,94.36 -183.28,94.36l-2869.37 0 -1485.3 -1.5c-124.4,-0.14 -225.03,-101 -224.97,-225.26l0 -0.71 -26.76 -0.34 0.08 26.74 4930.7 -17.84c14.79,-0.06 26.76,-12.12 26.7,-26.88 -0.08,-14.8 -12.08,-26.71 -26.85,-26.63l-4930.78 17.84c-14.63,0 -26.4,11.7 -26.62,26.32l0 1.5c0,153.82 124.48,278.56 278.42,278.71l1485.32 1.57 2869.43 0c89.99,0 174.49,-43.46 226.82,-116.75l119.26 -166.87c8.64,-12.08 5.85,-28.77 -6.21,-37.41 -12,-8.56 -28.77,-5.79 -37.33,6.29z"/>
   <path class="fil8" d="M14118.69 18455.71l-96.14 138.33c-56.67,81.5 -149.73,130.11 -249.01,130.11l-2826.55 0 -1547.75 -1.79c-14.79,-0.08 -26.76,11.92 -26.85,26.69 0,14.79 12.01,26.76 26.77,26.84l1547.83 1.78 2826.55 0c116.83,0 226.25,-57.17 292.97,-153.09l96.14 -138.32c8.42,-12.14 5.43,-28.83 -6.72,-37.25 -12.12,-8.44 -28.82,-5.44 -37.24,6.7z"/>
   <path class="fil8" d="M11054.2 18750.91l0 -231.9c0,-14.77 -12,-26.76 -26.76,-26.76 -14.77,0 -26.77,12 -26.77,26.76l0 231.9c0,14.77 12.01,26.76 26.77,26.76 14.77,0 26.76,-12 26.76,-26.76z"/>
   <polygon class="fil9" points="14157.31,18477.28 11819.88,18501.11 11998.3,18194.79 14228.67,18194.79 "/>
   <path class="fil9" d="M13937.19 18477.28l1339.72 -2802.84 160.58 4.51 12.22 29.25c0,0 -920.14,1755.09 -1292.4,2804.75l-220.12 -35.67z"/>
   <path class="fil9" d="M12011.72 18471.35c0,0 874.03,-1976.14 1195.49,-2788l-178.07 -0.28c-342.72,898.43 -1153,2725.61 -1153,2725.61l135.59 62.67z"/>
   <path class="fil9" d="M12961.82 15861.79l2413.21 0c0,0 62.46,-182.85 66.97,-165.03 -4.51,-17.82 -2402.08,1.44 -2402.08,1.44 0,0 -30.49,67.23 -78.1,163.59z"/>
   <path class="fil7" d="M14118.04 18522.37l114.2 0c55.51,0 106.12,-31.76 130.25,-81.79l1217.46 -2525.11c46.26,-95.86 -23.62,-207.27 -130.25,-207.27l-1309.03 2762.8 -22.63 51.38z"/>
   <path class="fil8" d="M14118.04 18549.14l114.2 0c65.79,0 125.76,-37.7 154.37,-96.93l1217.4 -2525.11c11.69,-24.2 17.19,-49.61 17.19,-74.38 -0.14,-90.07 -72.37,-171.08 -171.51,-171.3 -10.28,0 -19.78,5.99 -24.19,15.34l-1309.03 2762.82c-6.35,13.33 -0.65,29.25 12.71,35.6 13.42,6.36 29.31,0.65 35.67,-12.71l1309.03 -2762.79 -24.18 -11.5 0 26.77c34.4,0.06 63.37,13.92 84.49,35.61 21.05,21.76 33.48,51.46 33.48,82.15 0,16.91 -3.64,34.11 -11.86,51.1l-1217.46 2525.12c-19.62,40.76 -60.88,66.66 -106.12,66.66l-114.2 0c-14.77,0 -26.77,12 -26.77,26.76 0,14.78 12.01,26.77 26.77,26.77z"/>
   <path class="fil8" d="M12165.82 17785.61c279.56,-684.75 608.02,-1406.38 888.08,-2092.46l-24.76 -10.08 0 26.76 2395.45 0c14.77,0 26.76,-12 26.76,-26.76 0,-14.86 -12,-26.77 -26.76,-26.77l-2395.45 0c-10.93,0 -20.69,6.5 -24.76,16.63 -279.58,684.75 -608.02,1406.3 -888.08,2092.4 -5.59,13.71 0.93,29.34 14.63,34.9 13.7,5.57 29.34,-0.99 34.9,-14.63z"/>
   <path class="fil8" d="M11525.47 18515.67l2576.02 0c14.78,0 26.77,-12 26.77,-26.76 0,-14.79 -12,-26.76 -26.77,-26.76l-2576.02 0c-14.79,0 -26.76,11.98 -26.76,26.76 0,14.77 11.98,26.76 26.76,26.76z"/>
   <path class="fil10" d="M13383.2 16862.63c70.39,137.6 140.75,275.21 211.11,412.81 5.93,11.57 20.13,16.2 31.77,10.28 11.57,-5.91 16.14,-20.11 10.22,-31.77 -70.39,-137.53 -140.75,-275.2 -211.12,-412.8 -5.93,-11.58 -20.12,-16.12 -31.7,-10.22 -11.55,5.93 -16.2,20.13 -10.28,31.7z"/>
   <path class="fil10" d="M13471.91 16552.22c118.56,218.06 237.11,436.17 355.65,654.29 6.22,11.41 20.5,15.62 31.99,9.41 11.41,-6.22 15.62,-20.47 9.41,-31.97 -118.53,-218.05 -237.09,-436.17 -355.65,-654.26 -6.21,-11.43 -20.47,-15.63 -31.97,-9.43 -11.43,6.21 -15.63,20.55 -9.43,31.96z"/>
   <path class="fil11" d="M5402.36 17811.16c424.37,-724 1462.17,-1794.36 1858.66,-2533.97 304.39,94.19 600.59,56.66 904.98,150.8 -218.96,1450.63 -1158.65,2659.59 -2097.46,3786.84l-666.18 -1403.67z"/>
   <path class="fil8" d="M6781.47 16040.3c125.11,-213.62 263.21,-419.75 413.31,-616.73 9,-11.78 6.72,-28.55 -5.06,-37.53 -11.78,-8.93 -28.55,-6.72 -37.47,5.06 -151.45,198.77 -290.79,406.67 -416.97,622.21 -7.49,12.71 -3.2,29.11 9.57,36.62 12.79,7.43 29.11,3.14 36.62,-9.63z"/>
   <path class="fil8" d="M7646.05 17023.58c228.68,-468.99 409.4,-961.31 538.44,-1466.84 3.64,-14.35 -5,-28.91 -19.34,-32.55 -14.35,-3.64 -28.91,5 -32.55,19.34 -128.11,501.96 -307.53,990.93 -534.63,1456.55 -6.5,13.36 -1.02,29.33 12.26,35.83 13.3,6.5 29.34,0.93 35.83,-12.34z"/>
   <path class="fil12" d="M8126.39 15765.14l-657.4 0c-173.22,0 -313.61,-140.39 -313.61,-313.68l0 -1018.53 1284.7 0 0 1018.53c0,173.29 -140.48,313.68 -313.69,313.68z"/>
   <path class="fil8" d="M8126.39 15765.14l0 -26.76 -657.4 0c-79.28,0 -150.88,-32.05 -202.84,-84 -51.95,-52.03 -84,-123.55 -84,-202.92l0 -991.84 1231.16 0 0 991.84c-0.08,79.36 -32.13,150.88 -84.08,202.92 -51.95,51.95 -123.53,84 -202.84,84l0 53.53c187.99,0 340.37,-152.38 340.45,-340.45l0 -1018.53c0,-7.08 -2.85,-14 -7.85,-18.99 -5,-4.92 -11.92,-7.77 -18.91,-7.77l-1284.7 0c-7.06,0 -14,2.85 -18.99,7.77 -4.92,5 -7.77,11.92 -7.77,18.99l0 1018.53c0,188.07 152.38,340.45 340.37,340.45l657.4 0 0 -26.77z"/>
   <path class="fil11" d="M7450.08 14770.23c0,94.28 -114.27,170.71 -255.3,170.71 -141.03,0 -255.36,-76.43 -255.36,-170.71 0,-94.36 114.32,-170.8 255.36,-170.8 141.02,0 255.3,76.44 255.3,170.8z"/>
   <path class="fil8" d="M7450.08 14770.23l-26.77 0c0.08,35.69 -21.62,70.73 -62.88,98.49 -40.97,27.47 -99.98,45.54 -165.65,45.46 -65.65,0.08 -124.69,-17.98 -165.66,-45.46 -41.32,-27.76 -63.02,-62.8 -62.94,-98.49 -0.08,-35.77 21.62,-70.73 62.94,-98.51 40.97,-27.47 100.01,-45.53 165.66,-45.53 65.67,0 124.68,18.05 165.65,45.53 41.26,27.78 62.96,62.74 62.88,98.51l53.53 0c-0.08,-58.59 -35.46,-108.99 -86.65,-143.03 -51.44,-34.26 -120.03,-54.46 -195.41,-54.52 -75.37,0.06 -143.95,20.26 -195.42,54.52 -51.16,34.05 -86.65,84.44 -86.71,143.03 0.06,58.59 35.55,108.99 86.71,142.95 51.46,34.33 120.05,54.46 195.42,54.52 75.38,-0.06 143.96,-20.19 195.41,-54.52 51.19,-33.97 86.57,-84.36 86.65,-142.95l-26.76 0z"/>
   <path class="fil11" d="M8756.82 14528.06c0,124.83 -202.34,226.05 -451.99,226.05 -249.66,0 -452.02,-101.22 -452.02,-226.05 0,-124.83 202.36,-225.97 452.02,-225.97 249.65,0 451.99,101.14 451.99,225.97z"/>
   <path class="fil11" d="M8756.82 15325.07c0,124.83 -202.34,225.97 -451.99,225.97 -249.66,0 -452.02,-101.14 -452.02,-225.97 0,-124.83 202.36,-226.05 452.02,-226.05 249.65,0 451.99,101.22 451.99,226.05z"/>
   <path class="fil11" d="M8779.52 14908.76c0,124.76 -244.74,225.96 -546.64,225.96 -301.91,0 -546.66,-101.2 -546.66,-225.96 0,-124.89 244.74,-226.03 546.66,-226.03 301.89,0 546.64,101.14 546.64,226.03z"/>
   <path class="fil8" d="M8020.11 14674.59c-45.47,-19.56 -81.63,-43.68 -105.41,-69.17 -23.83,-25.61 -35.12,-51.38 -35.18,-77.37 0.06,-23.77 9.41,-47.17 29.19,-70.65 58.87,-71.32 214.25,-129.26 396.11,-128.61 121.18,-0.08 230.74,24.82 307.67,63.36 38.46,19.2 68.67,41.82 88.43,65.25 19.76,23.47 29.11,46.87 29.11,70.65 0,28.49 -13.64,56.95 -42.47,84.87 -28.74,27.67 -72.14,53.16 -125.96,72.71 -13.86,5.08 -21.05,20.41 -15.99,34.34 5.08,13.92 20.41,21.05 34.33,15.97 58.95,-21.54 108.57,-49.8 144.67,-84.48 35.97,-34.41 59.03,-76.8 58.95,-123.41 0.08,-38.6 -15.83,-74.74 -41.82,-105.27 -78.43,-91 -244.31,-146.81 -436.93,-147.46 -128.47,0.08 -244.96,25.77 -331.59,68.95 -43.34,21.69 -79.37,47.82 -105.35,78.51 -25.98,30.53 -41.9,66.67 -41.84,105.27 -0.06,42.41 19.05,81.51 49.54,113.9 30.61,32.69 72.8,59.96 123.33,81.79 13.56,5.87 29.25,-0.42 35.18,-13.98 5.85,-13.56 -0.42,-29.34 -14,-35.19z"/>
   <path class="fil8" d="M8462.63 15140.42c81.57,15.71 150.66,43.54 197.48,77.17 47.24,33.97 70.17,71.38 69.94,107.49 0,23.77 -9.35,47.17 -29.11,70.65 -58.89,71.24 -214.25,129.26 -396.1,128.55 -121.19,0.06 -230.77,-24.76 -307.7,-63.38 -38.46,-19.2 -68.65,-41.76 -88.41,-65.17 -19.78,-23.47 -29.13,-46.87 -29.19,-70.65 0,-32.19 17.75,-64.88 54.94,-95.94 36.97,-30.75 92.3,-57.8 159.24,-76.29 14.27,-3.93 22.62,-18.69 18.69,-32.9 -3.92,-14.29 -18.69,-22.62 -32.97,-18.69 -72.46,20.11 -134.04,49.38 -179.07,86.71 -44.84,36.96 -74.31,84.08 -74.31,137.11 -0.06,38.6 15.85,74.72 41.84,105.27 78.43,91 244.29,146.73 436.94,147.46 128.47,-0.08 244.93,-25.77 331.58,-69.03 43.32,-21.69 79.37,-47.74 105.35,-78.43 25.98,-30.55 41.9,-66.67 41.82,-105.27 -0.14,-59.97 -37.18,-111.69 -92.27,-151.03 -55.53,-39.61 -131.04,-69.15 -218.54,-86.14 -14.51,-2.85 -28.57,6.64 -31.34,21.2 -2.85,14.49 6.64,28.55 21.2,31.32z"/>
   <path class="fil8" d="M8232.88 14709.41c124.18,0 238.38,17.64 327.81,46.48 61.81,19.9 111.7,45.38 144.53,72.65 33.04,27.56 47.6,54.75 47.52,80.22 0,22.05 -10.64,44.89 -34.9,68.8 -36.2,35.61 -102.07,69.3 -186.57,92.79 -84.43,23.62 -187.43,37.61 -298.39,37.61 -147.89,0.08 -281.78,-24.97 -376.28,-64.16 -47.24,-19.48 -84.51,-42.55 -108.71,-66.24 -24.26,-23.91 -34.82,-46.75 -34.9,-68.8 0.08,-16.41 5.73,-32.68 18.43,-50.09 37.53,-52.6 142.72,-104.36 281.55,-129.69 66.81,-12.5 141.32,-19.56 219.9,-19.56 14.77,0 26.76,-11.92 26.76,-26.68 0,-14.86 -12,-26.77 -26.76,-26.77 -81.73,0 -159.44,7.21 -229.75,20.41 -97.36,18.19 -180.5,47.38 -241.38,85.58 -30.41,19.11 -55.45,40.61 -73.44,65 -17.98,24.34 -28.83,52.32 -28.83,81.8 0,40.32 20.05,76.94 51.02,107.06 46.82,45.47 119.54,80.78 209.53,106.06 90.01,25.13 197.36,39.62 312.84,39.62 154.02,-0.06 293.48,-25.61 396.75,-68.23 51.67,-21.42 94.42,-47.03 125.62,-77.45 31.03,-30.12 51.02,-66.74 51.02,-107.06 -0.08,-47.04 -26.76,-88.29 -66.95,-121.47 -40.46,-33.4 -95.85,-60.88 -162.23,-82.3 -95.92,-30.97 -214.96,-49.02 -344.22,-49.02 -14.79,0 -26.77,11.92 -26.77,26.77 0,14.77 11.99,26.76 26.77,26.76l0 -0.08z"/>
   <path class="fil8" d="M7192.63 13154.15l26.71 -0.34 0 -7.09c0.14,-132.09 51.3,-219.45 106.34,-306.52 54.52,-86.36 114.54,-172.65 114.68,-294.77l-0.2 -13c-5,-138.69 -78.71,-244.59 -155.6,-342.74 -77.51,-98.34 -158.73,-190.9 -191.21,-300.39 -14.85,-49.52 -21.82,-101.06 -21.82,-152.8 -0.08,-119.33 37.25,-240.37 100.06,-341.65 51.39,-82.66 116.19,-134.34 189.63,-181.07 73.22,-46.76 154.87,-87.72 234.8,-148.59 87.22,-66.75 146.68,-166.73 179.23,-267.44 12.2,-38.12 30.04,-104.98 30.19,-168.43 -0.09,-27.27 -3.28,-54.09 -13.28,-78.43 -9.72,-24.19 -27.98,-46.4 -54.97,-57.6 -21.48,-9 -41.6,-13.42 -60.59,-13.42 -38.97,-0.3 -69.72,19.83 -89.42,43.75 -20.19,23.97 -32.47,52.03 -41.76,75.45 -11.64,29.33 -16.55,60.51 -16.55,91.85 0.43,99.5 47.95,201.34 105.35,268.79 82.22,95.71 190.85,152.23 296.56,206.39 105.97,54.04 209.33,105.86 285.63,187 77.79,82.58 108.76,188.21 108.91,299.46 0.08,95.94 -23.55,195.36 -59.81,283.28 -39.11,95.43 -114.04,190.84 -180.7,291.42 -66.24,100.57 -125.27,207.69 -125.48,330.23 0,18.12 1.36,36.54 4.13,55.25 13.22,87.13 56.81,163.23 100.43,237.08 43.83,73.87 87.87,145.75 107.13,221.76 8.64,33.83 12.65,69.01 12.65,104.92 0.34,154.65 -76.03,323.53 -173.58,449 -310.89,400.82 -320.18,553.49 -320.81,562.47l26.76 1.08 26.26 -5.29c-0.56,-2.57 -30.4,-149.08 -158.59,-342.57 -83.72,-126.04 -175.57,-205.41 -244.15,-298.47 -68.47,-93.23 -117.14,-199.2 -120.19,-388.91l-26.71 0.34 -26.76 0.36c2.36,198.56 56.74,320.67 130.69,420.03 73.81,99.42 163.58,176.78 242.51,296.27 61.67,93.07 99.5,174.58 121.84,232.53 11.13,28.99 18.4,52.03 22.92,67.73 2.2,7.8 3.7,13.79 4.69,17.78l1.21 5.49c2.72,13.27 14.86,22.47 28.41,21.42 13.5,-1.07 24.05,-12.08 24.62,-25.63l0 -0.14c0.79,-9.92 21.28,-160.38 309.62,-531.72 102.92,-132.97 184.49,-309.76 184.77,-481.76 0,-39.9 -4.49,-79.58 -14.27,-118.19 -22.27,-86.79 -69.66,-162.46 -112.99,-235.75 -43.46,-73.22 -82.56,-143.88 -93.49,-217.75 -2.42,-15.97 -3.56,-31.76 -3.56,-47.31 -0.22,-104.28 51.53,-202.42 116.61,-300.68 64.81,-98.28 141.88,-195.13 185.57,-300.55 38.48,-93.49 63.74,-199.06 63.81,-303.69 0.14,-120.96 -34.4,-241.72 -123.48,-336.14 -85.29,-90.29 -194.85,-144.02 -300.25,-197.99 -105.63,-53.89 -206.9,-107.92 -280.28,-193.57 -49.81,-57.6 -92.86,-152.24 -92.42,-233.96 0,-25.76 4.07,-50.17 12.77,-72.15 8.42,-21.57 19.34,-44.7 32.9,-60.61 14,-15.98 27.55,-24.54 48.53,-24.77 10.56,0 23.55,2.43 39.76,9.29 12.36,5.37 19.98,13.79 26.34,28.63 6.13,14.69 9.21,35.24 9.21,58.02 0.14,53.23 -16.27,117.4 -27.56,151.94 -29.76,92.58 -84.93,183.64 -160.8,241.31 -74.94,57.32 -154.65,97.5 -231.1,146.03 -76.3,48.51 -149.51,106.26 -206.34,198.05 -67.8,109.41 -108.12,239.37 -108.12,369.85 0,56.6 7.63,113.27 24.05,168.16 37.61,124.69 124.75,221.31 200.34,318.1 76.23,96.99 140.24,192.2 144.24,311.54l0.2 11.14c0.09,103.06 -50.37,177.85 -106.4,266.05 -55.47,87.52 -114.85,188.3 -114.62,335.23l0.06 7.79 26.76 -0.36z"/>
   <polygon class="fil13" points="4450.76,25215.98 5319.84,26128.82 5726.53,25711.06 4789.78,24903.73 "/>
   <path class="fil9" d="M3522.34 26086.71c-25.41,36.34 940.33,-888.58 940.33,-888.58 263.01,319.82 862.38,921.89 862.38,921.89 -31.68,35.04 -53.25,57.82 -73.53,78.72 -62.51,64.37 -96.9,150.66 -95.41,240.46 5.93,355.55 11.13,1284.19 -92.35,1440.9l-111.92 109.3c-62.74,61.3 -165.43,51.79 -215.97,-19.77 -465.34,-658.71 -910.91,-1300.54 -1213.53,-1882.93z"/>
   <path class="fil8" d="M3497.66 26113.39c303.67,584.75 749.61,1227.32 1214.89,1886.36 33.18,47.11 85.78,71.74 138.39,71.66 42.24,0 85.07,-15.84 118.1,-48.08l111.92 -109.22 3.64 -4.43c24.48,-37.98 39.54,-98.57 52.88,-178.8 38.55,-239.23 46.82,-647.38 46.89,-965.14 0,-125.39 -1.35,-236.46 -2.65,-317.02l-0.06 -5.23c0,-76.74 28.55,-150.66 80.22,-207.63 156.22,-172.32 293.76,-335.06 465.42,-501.01 10.62,-10.3 10.91,-27.27 0.62,-37.89 -10.28,-10.65 -27.25,-10.93 -37.89,-0.65 -173.93,168.29 -312.39,332.22 -467.85,503.6 -60.59,66.81 -94.06,153.6 -94.06,243.58l0.06 6.14c1.36,80.27 2.66,191.14 2.66,316.11 0,210.97 -3.79,462.57 -17.48,675.81 -6.86,106.56 -16.28,203.68 -28.77,280.85 -12.06,76.88 -28.97,134.98 -44.67,157.72l22.33 14.78 -18.71 -19.12 -111.9 109.21c-22.75,22.2 -51.66,32.84 -80.71,32.9 -36.26,-0.06 -71.89,-16.6 -94.71,-48.95 -464.99,-658.76 -909.86,-1300.11 -1211.1,-1880.14 -6.78,-13.14 -22.98,-18.27 -36.06,-11.44 -13.13,6.8 -18.26,22.92 -11.41,36.05z"/>
   <path class="fil8" d="M3500.51 26071.29l-2.06 3.34c-0.73,2.06 -2.71,3.72 -3.22,12.77 -0.14,4.31 1.5,13.13 8.5,19.62 7.06,6.46 14.63,7.29 18.32,7.22 6.58,-0.22 8.65,-1.49 10.51,-2.06l7.77 -4.65c5.42,-4.11 13.21,-10.97 25.63,-21.95 181.86,-162.38 1242,-1162.23 1242.14,-1162.38 10.79,-10.13 11.29,-27.12 1.16,-37.83 -10.14,-10.79 -27.13,-11.27 -37.84,-1.13 -0.22,0.2 -78.43,74.01 -196.35,184.99 -176.78,166.43 -442.3,416.1 -664.68,624.14 -111.19,104.07 -211.68,197.7 -284.84,265.24 -36.56,33.72 -66.38,60.99 -87.15,79.7 -10.43,9.33 -18.55,16.65 -24.06,21.34l-5.84 4.86 -0.51 0.32 6.64 9.09 -5.77 -9.63 -0.87 0.54 6.64 9.09 -5.77 -9.63 12.06 19.98 -9.43 -21.34 -2.63 1.36 12.06 19.98 -9.43 -21.34 10.56 23.97 0 -26.17c-7.14,0.26 -8.92,1.7 -10.56,2.2l10.56 23.97 0 -26.17 0 26.66 18.21 -19.48c-7,-6.42 -14.49,-7.18 -18.21,-7.18l0 26.66 18.21 -19.48 -18.21 19.48 26.71 0c0.14,-4.21 -1.44,-12.99 -8.5,-19.48l-18.21 19.48 26.71 0 -26.2 0 23.18 12.22c0.59,-1.78 2.51,-3.3 3.02,-12.22l-26.2 0 23.18 12.22 -20.04 -10.56 18.55 13.07 1.49 -2.51 -20.04 -10.56 18.55 13.07c8.5,-12.06 5.58,-28.77 -6.5,-37.29 -12.06,-8.54 -28.75,-5.62 -37.25,6.46z"/>
   <path class="fil8" d="M4449.04 25246.16c282.57,301.4 565.12,602.88 847.68,904.28 10.13,10.77 27.06,11.35 37.83,1.19 10.85,-10.05 11.35,-26.94 1.3,-37.79 -282.58,-301.4 -565.13,-602.9 -847.7,-904.3 -10.14,-10.77 -27.05,-11.27 -37.81,-1.21 -10.87,10.13 -11.36,27.04 -1.3,37.83z"/>
   <path class="fil8" d="M3689.21 25938.17l1281.35 2044.89 -18.71 22.27c-59.01,70.09 -168.57,64.72 -220.4,-10.8l-708.92 -1034.47 -516.36 -859.38 183.05 -162.51z"/>
   <polygon class="fil8" points="4798.69,24876.96 5726.53,25711.06 4687.2,25015.2 "/>
   <path class="fil8" d="M4730.6 27647.96c111.77,-87.52 253.86,-136.34 395.82,-136.24l13.56 0.12c14.8,0.37 27.05,-11.33 27.35,-26.11 0.35,-14.78 -11.35,-27.03 -26.13,-27.4l-14.78 -0.14c-154.16,0 -307.31,52.58 -428.86,147.59 -11.63,9.12 -13.72,25.91 -4.57,37.53 9.15,11.66 25.91,13.72 37.61,4.65z"/>
   <path class="fil8" d="M4921.74 27114.46c54.3,10.4 109.55,15.62 164.78,15.62 22.7,0 45.41,-0.85 68.02,-2.64 14.78,-1.13 25.78,-14 24.62,-28.76 -1.13,-14.7 -13.98,-25.76 -28.68,-24.62 -21.26,1.64 -42.61,2.49 -63.96,2.49 -51.89,0 -103.77,-4.92 -154.66,-14.7 -14.55,-2.79 -28.55,6.72 -31.32,21.26 -2.79,14.49 6.7,28.55 21.2,31.34z"/>
   <path class="fil8" d="M4876.2 26769.52c83.15,9.19 166.31,18.4 249.37,27.61 14.72,1.64 27.9,-9 29.54,-23.61 1.64,-14.73 -8.92,-27.99 -23.61,-29.55 -83.14,-9.19 -166.3,-18.43 -249.37,-27.62 -14.71,-1.66 -27.98,8.93 -29.56,23.61 -1.63,14.73 8.93,27.9 23.63,29.56z"/>
   <path class="fil8" d="M4884.9 26446.03c79,20.92 158.03,41.79 237.03,62.68 14.29,3.81 28.91,-4.69 32.7,-18.97 3.78,-14.27 -4.72,-28.97 -19.06,-32.76 -78.94,-20.91 -157.95,-41.78 -236.94,-62.67 -14.37,-3.77 -29,4.71 -32.78,18.97 -3.78,14.29 4.8,28.99 19.05,32.75z"/>
   <path class="fil8" d="M4617.26 25852.39l-26.77 0c-0.14,83.79 -67.87,151.51 -151.65,151.65 -83.73,-0.14 -151.45,-67.86 -151.67,-151.65 0.22,-83.8 67.94,-151.53 151.67,-151.68 83.78,0.15 151.51,67.88 151.65,151.68l53.53 0c0,-113.34 -91.85,-205.21 -205.18,-205.21 -113.35,0 -205.12,91.87 -205.2,205.21 0.08,113.35 91.85,205.18 205.2,205.18 113.33,0 205.18,-91.83 205.18,-205.18l-26.76 0z"/>
   <path class="fil14" d="M8123.03 22578.43c-77.23,430.5 -183.2,964.93 -442.64,1317.16 -146.6,198.98 -1231.17,1802.15 -1570.18,2176.83 -519.24,-508.74 -1457.4,-1258.92 -1940.45,-1802.12 486.25,-665.47 1419.23,-1117.4 1694.94,-1583.1 -379.07,-302.33 -758.13,-604.66 -1137.1,-907.13 262.44,-107.7 682.94,-91.93 954.22,-9.07 834.62,255.16 1606.6,552.33 2441.2,807.43z"/>
   <path class="fil8" d="M8087.78 22573.72c-76.8,430.01 -183.49,961.51 -437.86,1306.03 -74.17,100.63 -381.43,550.47 -713.3,1022.95 -331.44,472.06 -688.03,967.18 -855.18,1151.73l19.84 17.98 18.69 -19.11c-520.79,-510.1 -1449.9,-1260.44 -1930.23,-1800.79l-19.98 17.78 21.54 15.75c240.02,-328.59 590.76,-606.94 916.85,-861.16 326.11,-254.65 627.72,-483.75 770.61,-724.06 6.78,-11.43 4.07,-26.2 -6.36,-34.56 -378.43,-301.82 -769.61,-641.75 -1149.24,-944.66 -11.49,-9.21 -28.32,-7.37 -37.61,4.21 -9.21,11.56 -7.28,28.4 4.29,37.61 378.35,301.97 769.6,641.84 1149.22,944.69l16.71 -20.92 -23.06 -13.64c-132.83,225.4 -431.01,455.06 -757.47,709.15 -326.31,254.59 -680.82,534.93 -927.12,871.8 -7.42,10.14 -6.78,24.12 1.58,33.55 485.75,546.15 1415.15,1296.12 1932.88,1803.5 5.14,5.06 12.29,7.83 19.48,7.63 7.29,-0.22 14.21,-3.42 19.06,-8.79 171.86,-190.13 527.06,-683.96 859.3,-1156.92 331.81,-472.49 640.06,-923.7 712.58,-1022.05 264.57,-359.85 369.77,-897.22 447.42,-1328.28 2.65,-14.57 -7.06,-28.49 -21.62,-31.06 -14.55,-2.65 -28.41,7.07 -31.04,21.63z"/>
   <path class="fil8" d="M5392.7 25174.92c524.8,-582.88 1003.28,-1207.38 1429.51,-1865.79 175.28,-270.91 343.87,-548.69 578.39,-761.81 11.01,-9.94 11.77,-26.85 1.86,-37.78 -10,-10.91 -26.91,-11.78 -37.84,-1.78 -242.14,220.26 -412.52,502.47 -587.37,772.25 -424.67,656.04 -901.43,1278.25 -1424.3,1859.07 -9.92,11.01 -8.99,27.92 2,37.84 10.93,9.85 27.9,9 37.75,-2.01z"/>
   <polygon class="fil11" points="8055.66,26523.4 9292.26,26642.12 9277.27,26152.73 8068.45,26114.81 "/>
   <path class="fil9" d="M7998.5 27985.26c7.78,43.6 57.16,-1461.86 57.16,-1461.86 412.25,39.58 824.43,79.16 1236.59,118.72l-6.94 0.34c2.94,55.68 6.01,111.43 8.78,167.54 5.57,110.52 53.11,214.47 132.68,291.48 201.43,194.91 595.68,585.17 800.8,846.4 83.57,106.56 128.97,237.65 127.54,373.12 -0.85,85.22 -77.94,149.53 -161.94,135.17 -796.65,-135.87 -1567.46,-273.68 -2194.68,-470.9z"/>
   <path class="fil8" d="M7996.42 28022.59c629.78,198.15 1401.38,335.94 2198.18,471.83 9.43,1.64 18.85,2.43 28.12,2.43 88.85,-0.06 164.02,-71.58 165.15,-163.65l0 -0.51 -26.74 0 26.74 0.31 0 -6.8c0,-134.55 -42.89,-266.51 -125.82,-373.33 -205.12,-264.01 -607.02,-661.57 -811.21,-859.18 -74.52,-72.15 -118.82,-169.65 -124.04,-273.22 -9.92,-197.69 -20.41,-397.24 -20.41,-597.38 0,-26.25 0.22,-52.59 0.57,-78.85 0.28,-14.84 -11.56,-26.99 -26.32,-27.19 -14.8,-0.23 -26.91,11.57 -27.13,26.32 -0.43,26.62 -0.65,53.18 -0.65,79.72 0.08,202 10.56,402.49 20.49,600.09 5.85,117.11 56.02,227.48 140.31,308.99 203.34,196.69 605.24,594.72 806.07,853.54 75.37,96.91 114.63,217.23 114.63,340.5l0 6.71 26.77 0 -26.77 -0.28c-0.58,62.23 -51.83,110.68 -111.63,110.68 -6.27,0 -12.63,-0.56 -19.11,-1.62 -796.46,-135.83 -1566.4,-273.58 -2191.12,-470.13 -14.15,-4.43 -29.11,3.42 -33.55,17.47 -4.43,14.15 3.36,29.11 17.48,33.63l0 -0.08z"/>
   <path class="fil8" d="M7972.16 27989.91l1.5 5.55 4.29 7.36c2.41,3.2 9.49,9.84 20.84,9.92 7.34,0.06 13.33,-3.14 16.48,-5.62l8.06 -10.39 2 -6.17 1.64 -12.79c6.72,-76.94 24.76,-533.58 41.33,-973.25 16.49,-439.2 31.4,-859.79 31.4,-859.79 0.51,-14.79 -11.07,-27.13 -25.83,-27.69 -14.77,-0.51 -27.13,11.09 -27.7,25.81 0,0.32 -4.06,115.15 -10.28,287.77 -9.43,259.11 -23.68,647.65 -36.47,971.47 -6.36,161.88 -12.35,307.54 -17.2,412.66 -2.43,52.54 -4.49,95.01 -6.27,124.12 -0.87,14.57 -1.58,25.84 -2.23,33.12l-0.71 7.35 -0.06 0.42 16.63 2.88 -16.14 -5.02 -0.49 2.14 16.63 2.88 -16.14 -5.02 24.19 7.51 -21.76 -12.87 -2.43 5.36 24.19 7.51 -21.76 -12.87 22.78 13.45 -17.42 -19.94 -5.36 6.5 22.78 13.45 -17.42 -19.94 17.56 20.13 0 -26.69c-8.36,0 -14.57,3.95 -17.56,6.56l17.56 20.13 0 -26.69 0 26.69 20.69 -16.83c-2.37,-3.12 -9.43,-9.7 -20.69,-9.86l0 26.69 20.69 -16.83 -20.21 16.42 24.93 -7.57 -4.72 -8.86 -20.21 16.42 24.93 -7.57 -21.93 6.64 22.55 -4.01 -0.62 -2.63 -21.93 6.64 22.55 -4.01c-2.57,-14.49 -16.4,-24.25 -30.97,-21.6 -14.55,2.55 -24.26,16.38 -21.69,30.97z"/>
   <path class="fil8" d="M8052.01 26561.34c412.26,39.53 824.43,79.06 1236.6,118.68 14.69,1.41 27.76,-9.35 29.17,-24.12 1.44,-14.73 -9.35,-27.77 -24.03,-29.19 -412.18,-39.56 -824.43,-79.14 -1236.6,-118.72 -14.69,-1.41 -27.75,9.43 -29.19,24.16 -1.42,14.69 9.37,27.77 24.05,29.19z"/>
   <path class="fil8" d="M8010.42 27740.74l2328.49 544.23 2.87 28.95c8.84,91.28 -71.66,165.82 -161.95,149.97l-1191.07 -208.7 -990.26 -269.92 11.92 -244.52z"/>
   <polygon class="fil8" points="8055.01,26090.27 9304.03,26140.79 8046.1,26343.06 "/>
   <path class="fil8" d="M9527.91 27600.71c88.43,-36.68 176.94,-73.38 265.38,-109.97 13.62,-5.71 20.11,-21.33 14.49,-34.97 -5.64,-13.72 -21.34,-20.12 -34.98,-14.51 -88.43,36.7 -176.92,73.31 -265.36,110 -13.72,5.62 -20.21,21.32 -14.49,34.96 5.63,13.64 21.26,20.12 34.96,14.49z"/>
   <path class="fil8" d="M9292.83 27395.23l273.34 -120.68c13.5,-5.99 19.62,-21.76 13.64,-35.32 -5.99,-13.5 -21.76,-19.64 -35.32,-13.64l-273.29 120.68c-13.49,6.01 -19.62,21.74 -13.64,35.32 5.99,13.5 21.77,19.62 35.27,13.64z"/>
   <path class="fil8" d="M9074.07 27154.36l299.96 -88.29c14.21,-4.13 22.28,-19.03 18.13,-33.18 -4.21,-14.22 -19.04,-22.35 -33.26,-18.14l-299.97 88.23c-14.21,4.13 -22.25,19.03 -18.12,33.26 4.21,14.1 19.05,22.25 33.26,18.12z"/>
   <path class="fil8" d="M9776.51 28148.71c40.9,-147.59 155.95,-274.07 299.04,-328.75 13.78,-5.27 20.69,-20.78 15.42,-34.54 -5.28,-13.84 -20.77,-20.69 -34.56,-15.42 -159.5,61.3 -285.54,199.79 -331.5,364.34 -4.01,14.23 4.35,29.01 18.63,32.92 14.2,4 28.97,-4.37 32.97,-18.55z"/>
   <path class="fil15" d="M7555.5 26114.02c761.53,-21.04 3092.74,119 3092.74,119 42.19,197.12 -493.32,-2662.32 -737.49,-4353.69 -75.08,-520.14 -428.21,-904.05 -990.34,-1042.01 -399.97,-98.09 -1388.76,-290.29 -1993.49,-484.13 -84,-81.93 -261.5,-559.55 -281.42,-675.25l-2761.22 0c0,0 -289.92,515.23 -190.36,1048.44 122.48,655.27 695.32,912.92 1262.42,1111.97 769.54,270.07 1567.13,466.78 2359.48,656.77 139.18,33.41 278.5,66.44 418.1,97.92 27.62,702.8 -150.09,2276.84 -178.41,3520.96z"/>
   <path class="fil8" d="M7543.57 26102.13l0.79 26.77c52.88,-1.5 113.55,-2.15 180.64,-2.15 446.29,0 1174.06,30.25 1789.87,60.53 307.9,15.14 587.88,30.25 790.95,41.6 202.98,11.36 328.57,18.91 328.93,18.91l1.58 -26.7 -18.91 18.93c2.57,2.61 8.98,7.77 18.97,7.84l16.28 -5.41c6.78,-5.52 8,-9.94 9.07,-12.44 2.13,-7.19 1.36,-7.84 1.56,-9.58 -0.14,-5.76 -0.71,-8.78 -1.72,-15.95 -14.92,-102.16 -140.39,-781.4 -291.54,-1639.27 -151.17,-857.55 -327.89,-1892.44 -444.67,-2701.64 -75.93,-530.51 -439.56,-924.83 -1010.53,-1064.09 -401.11,-98.35 -1389.48,-290.63 -1991.64,-483.61l-8.21 25.47 18.71 -19.12c-16,-15.14 -43.4,-59.68 -71.32,-116.55 -42.47,-85.8 -89.79,-201.43 -128.03,-305.9 -38.25,-104.21 -67.73,-199.06 -74.37,-238.24 -2.23,-12.85 -13.36,-22.27 -26.42,-22.27l-2761.22 0c-9.65,0 -18.63,5.28 -23.34,13.64 -0.93,2.15 -214.19,379.93 -214.53,829.77 0,77.31 6.33,156.73 21.26,236.74 62.31,334.66 241.37,569.84 474.77,743.62 233.37,174.07 520.79,288.85 805.12,388.69 771.12,270.63 1569.55,467.55 2362.05,657.54 139.25,33.34 278.64,66.52 418.47,98l5.84 -26.12 -26.68 1.08c1.92,49.88 2.85,104.41 2.85,163 0.06,759.75 -154.95,2199.82 -181.29,3356.26 -0.22,7.35 2.65,14.43 7.86,19.63 5.22,5.14 12.28,7.97 19.62,7.79l-0.79 -26.77 26.76 0.65c26.28,-1153.53 181.29,-2592.08 181.35,-3357.56 0,-59.15 -0.91,-114.32 -2.91,-165.15 -0.43,-12.14 -9.01,-22.41 -20.84,-25.04 -139.48,-31.42 -278.56,-64.46 -417.74,-97.86 -792.3,-189.86 -1588.94,-386.49 -2356.85,-655.98 -282.84,-99.2 -565.47,-212.76 -790.87,-381.06 -225.4,-168.58 -393.96,-389.91 -454.06,-710.57 -14.27,-76.37 -20.41,-152.52 -20.41,-226.89 0,-216.4 51.89,-417.89 104.07,-564.9 25.97,-73.53 52.03,-133.41 71.52,-174.8 9.77,-20.69 17.84,-36.76 23.46,-47.6 5.65,-10.85 8.65,-16.2 8.65,-16.2l-23.33 -13.13 0 26.76 2761.22 0 0 -26.76 -26.32 4.57c11.05,62.96 60.37,210.04 118.19,355.65 28.83,72.59 59.72,144.02 89,203.12 29.61,59.32 55.87,105.21 81.85,131.12l10.56 6.35c607.31,194.55 1596.52,386.77 1995.28,484.68 553.34,136.47 895.98,509.96 970.21,1019.76 120.76,836.4 305.19,1912.39 459.49,2785.63 77.17,436.66 146.74,822.49 197.06,1102.33 25.12,139.91 45.48,253.22 59.54,333.19 6.98,39.88 12.4,71.42 16.04,93.69 1.86,11.07 3.3,19.84 4.15,26.04l0.99 7.22 0.14 1.7 0.08 0.14 14.13 -0.79 -14.21 0 0.08 0.79 14.13 -0.79 -14.21 0 23.91 0 -23.49 -4.43 -0.42 4.43 23.91 0 -23.49 -4.43 25.92 4.9 -22.98 -12.95 -2.94 8.05 25.92 4.9 -22.98 -12.95 23.26 13.07 -16.12 -21.2 -7.14 8.14 23.26 13.07 -16.12 -21.2 16.12 21.26 0 -26.68 -16.12 5.42 16.12 21.26 0 -26.68 0 26.62 18.91 -18.83c-2.57,-2.65 -8.92,-7.73 -18.91,-7.79l0 26.62 18.91 -18.83c-4.63,-4.66 -10.84,-7.43 -17.33,-7.79 -0.28,0 -2016.53,-121.19 -2912.97,-121.19 -67.45,0 -128.53,0.65 -182.14,2.15l0.71 26.76 26.76 0.65 -26.76 -0.65z"/>
   <path class="fil8" d="M3772.5 19944.26c0,0 2872.99,-266.3 2855.6,-277.43l-2748.33 0 -107.27 277.43z"/>
   <path class="fil16" d="M4888.12 19842.98c-7.49,58.16 -11.21,116.75 -11.21,175.34 0.08,303.83 99.28,607.25 282.07,850.47 110.39,145.31 353.14,270.71 661.83,386.7 462.91,172.93 1074.43,318.97 1598.29,434.59 261.86,57.8 501.74,107.98 689.81,149.93 94,21 175,39.9 239.09,56.67 63.95,16.62 111.55,31.48 136.04,42.69l11.13 -24.34 -26.4 4.72c67.6,379.56 89.71,751.11 89.71,1119.96 0.08,699.87 -79.99,1389.76 -80.07,2103.4 0,253.66 10.13,510.4 37.75,771.54 1.52,14.69 14.71,25.39 29.42,23.83 14.71,-1.58 25.32,-14.73 23.76,-29.42 -27.27,-258.94 -37.41,-513.74 -37.41,-765.95 0,-709.65 80.02,-1399.38 80.08,-2103.4 0,-370.92 -22.26,-745.82 -90.5,-1129.39 -1.58,-8.64 -7.28,-15.98 -15.28,-19.62 -41.03,-18.55 -114.04,-38.91 -215.18,-63.53 -352.71,-85.49 -1038.17,-215.97 -1680.37,-384.68 -320.97,-84.36 -631.08,-178.3 -882.23,-280.43 -251.23,-101.78 -443.37,-213.68 -526.64,-325.46 -175.65,-233.54 -271.36,-526.08 -271.36,-818.28 0,-56.38 3.56,-112.69 10.79,-168.51 1.84,-14.7 -8.5,-28.12 -23.13,-29.96 -14.65,-1.95 -28.06,8.41 -29.98,23.12z"/>
   <path class="fil16" d="M5015.51 20545.91c255.44,-131.91 446.79,-379.56 509.73,-660.13 3.3,-14.41 -5.77,-28.69 -20.25,-31.97 -14.43,-3.21 -28.7,5.85 -31.9,20.27 -59.18,264.51 -241.18,500.16 -482.14,624.22 -13.13,6.78 -18.26,22.9 -11.47,36.03 6.78,13.14 22.9,18.35 36.03,11.58z"/>
   <path class="fil16" d="M7664.41 25452.64c653.04,-31.34 1306.88,-47.04 1960.65,-47.04 261.5,0 523.08,2.51 784.52,7.57 14.77,0.29 26.96,-11.49 27.27,-26.26 0.28,-14.77 -11.44,-26.98 -26.2,-27.27 -261.88,-5.06 -523.73,-7.56 -785.59,-7.56 -654.62,0 -1309.33,15.69 -1963.22,47.11 -14.78,0.71 -26.12,13.19 -25.41,27.96 0.71,14.79 13.21,26.2 27.98,25.49z"/>
   <path class="fil8" d="M8955.16 20961.08c153.88,445.58 494.39,822.2 922.26,1020.04 13.42,6.21 29.34,0.34 35.55,-13.07 6.21,-13.42 0.34,-29.34 -13.07,-35.47 -414.24,-191.43 -745.41,-557.63 -894.15,-989.01 -4.85,-13.9 -20.04,-21.32 -34.05,-16.54 -13.98,4.86 -21.4,20.05 -16.54,34.05z"/>
   <path class="fil11" d="M6532.24 14574.87c-68.02,428.23 -363.15,736.56 -898.49,652.34 -428.32,-67.37 -720.3,-470.2 -652.28,-898.41 67.96,-428.24 470.14,-720.3 898.35,-652.34 428.23,67.94 720.36,470.2 652.42,898.41z"/>
   <path class="fil11" d="M6444.88 14384.32c71.44,42.41 76.95,48.96 148.38,91.37 34.33,20.32 72.59,46.67 75.73,86.48 2.99,37.27 -28.69,70.11 -64.24,81.51 -35.55,11.35 -74.01,6.35 -111.04,1.21l-48.82 -260.58z"/>
   <path class="fil8" d="M6593.26 14475.69l13.64 -23.07c-22.62,-13.41 -38.18,-22.98 -51.53,-31.4l-14.29 22.7 26.77 -0.28c-3.56,-389.28 -286.56,-730.58 -683.8,-793.6 -43.06,-6.84 -85.86,-10.2 -128.19,-10.2 -392.4,0 -737.34,284.98 -800.87,684.73 -6.84,43.12 -10.12,85.94 -10.12,128.27 0,392.46 284.9,737.83 684.73,800.77 60.95,9.65 119.12,14.29 174.35,14.29 205.62,0.14 371.85,-64.66 495.46,-174.57 123.7,-109.84 204.48,-263.5 244.6,-439.37l-26.12 -5.99 -3.08 26.62c13.28,1.5 27.05,2.63 41.2,2.63 18.47,0 37.67,-2 56.87,-8.07l0 0c21.7,-6.98 41.53,-19.68 56.89,-36.97 15.19,-17.13 26.11,-39.67 26.19,-65.16l-0.3 -6.98c-2.27,-28.35 -17.11,-50.82 -34.03,-67.46 -17.13,-16.84 -36.98,-29.41 -54.74,-39.98l-13.64 23.07 -13.7 22.98c16.54,9.77 32.97,20.61 44.39,31.96 11.57,11.58 17.41,22.13 18.34,33.63l0.14 2.77c0,9.71 -4.29,20.06 -12.79,29.7 -8.33,9.57 -20.75,17.55 -33.12,21.48l0.09 -0.08c-12.49,4.01 -25.98,5.56 -40.61,5.56 -11.15,0 -22.92,-0.93 -35.06,-2.28 -13.56,-1.56 -26.12,7.28 -29.12,20.63 -38.26,167.44 -114.32,310.33 -227.97,411.24 -113.75,100.78 -265.36,160.95 -459.91,161.09 -52.24,0 -107.64,-4.43 -166.08,-13.64 -373.35,-58.65 -639.5,-381.49 -639.5,-747.89 0,-39.56 3.07,-79.59 9.51,-119.83 59.16,-373.43 381.69,-639.64 747.97,-639.64 39.48,0 79.51,3.14 119.83,9.49 370.98,58.81 635.29,377.76 638.63,741.25 0.08,9.15 4.79,17.56 12.57,22.42 13.78,8.72 29.76,18.48 52.68,32.13l13.7 -22.98z"/>
   <path class="fil8" d="M5476.51 14510.59c-147.1,89.5 -305.76,158.23 -467.85,201.2 -49.02,-177.28 -54.58,-378.06 13.92,-548.79 68.53,-170.64 194.35,-317.82 352.37,-411.95 114.27,-68.16 271.28,-95.5 404.33,-95.78 140.1,-0.36 275.41,46.89 381.83,112.54l-48.45 85.86c-101.85,189.86 -246.58,360.56 -417.32,501.4l-8.56 6.78c-49.46,-50.31 -143.46,-59.66 -193.86,-6.72 -38.6,40.63 -39.31,105.06 -13.7,154.02l-2.71 1.44z"/>
   <path class="fil8" d="M5953.62 14085.9c9.57,67.82 81,120.28 148.59,109.08 67.52,-11.22 118.25,-83.86 105.49,-151.09 21.55,51.02 75.82,82.78 126.61,104.84 50.82,21.97 114.35,17.27 156.45,-18.77 52.6,-44.96 59.89,-128.04 30.91,-190.92 -29.05,-62.8 -86.87,-107.92 -148.03,-140.31 -71.15,-37.76 -158.23,-61.24 -231.3,-27.41l-188.72 314.59z"/>
   <path class="fil11" d="M5832.29 14402.1c-17.47,110.32 -121.12,185.56 -231.39,168.07 -110.34,-17.54 -185.56,-121.11 -168.02,-231.45 17.49,-110.28 121.12,-185.51 231.41,-168.03 110.25,17.5 185.56,121.12 168,231.41z"/>
   <polygon class="fil4" points="5212.28,14861.94 5592.98,14394.73 5782.55,14952.43 "/>
   <path class="fil8" d="M5421.05 13759.25c0,0 -526.3,276.42 -938.84,91 -412.52,-185.42 -488.8,-435.94 -382.84,-671.68 106,-235.67 354.01,-367.36 766.54,-181.92 412.52,185.42 555.13,762.6 555.13,762.6z"/>
   <path class="fil8" d="M6221.26 14724.19c41.34,70.44 114.12,119.91 194.85,132.33 14.57,2.21 28.21,-7.85 30.49,-22.47 2.21,-14.65 -7.87,-28.26 -22.49,-30.49 -64.01,-9.55 -124.04,-50.31 -156.59,-106.34 -7.43,-12.79 -23.83,-17.05 -36.6,-9.63 -12.79,7.48 -17.07,23.83 -9.66,36.6z"/>
   <path class="fil8" d="M6422.09 14400.1c-2.57,16.26 -17.75,27.25 -34.03,24.68 -16.2,-2.49 -27.27,-17.76 -24.7,-33.97 2.57,-16.26 17.78,-27.33 34.05,-24.76 16.2,2.65 27.25,17.84 24.68,34.05z"/>
   <path class="fil17" d="M6246.96 14432.93c0,59.1 -47.95,107.05 -107.05,107.05 -59.18,0 -107.07,-47.94 -107.07,-107.05 0,-59.17 47.88,-107.07 107.07,-107.07 59.09,0 107.05,47.89 107.05,107.07z"/>
   <path class="fil11" d="M8642.04 17244.83c35.55,-1 191.65,-16.91 227.12,-18.13 523.93,-18.2 1046.45,-55.02 1564.53,-133.47 233.53,-35.32 473.13,-78.85 703.58,-27.19l62.6 13.56c491.53,115.2 921.28,539.21 1062.22,1024.05 0.29,7.29 -0.28,14.63 -1.58,21.83 -14.83,82.78 -116.04,118.98 -187.84,75.16 -136.47,-83.29 -335.3,-224.47 -335.3,-224.47 87.93,164.16 175.57,332.16 268.63,494.9l-482.76 0 -11.28 -8.86c-3.13,24.33 -6.43,48.67 -9.91,73.01 -12.14,84.73 -109.57,130.4 -179.8,81.43 -67.59,-47.09 -86.7,-134.88 -101.28,-214.89 -27.33,-150.16 -54.74,-300.4 -82.07,-450.64l-8.06 -15.5c-143.45,340.65 -561.7,486.62 -929.04,578.83 -391.04,97.98 -792.89,183.84 -1180.27,254.29 -48.19,8.7 -229.33,39.39 -277.49,47.54l-102.01 -1571.47z"/>
   <path class="fil8" d="M10542.2 17370.3c116.32,-4.57 239.65,-11.07 359.4,-11.07 139.48,-0.08 274.01,8.93 385.86,39.19 88.26,23.33 174.71,97.36 210.6,181.27 32.33,74.38 38.63,159.45 38.54,246.24 0,12.93 -0.06,25.91 -0.28,38.9 -3.42,228.4 -21.76,456.42 -54.94,682.39 -2.74,17.47 -11.8,30.32 -26.34,40.46 -14.49,10 -34.62,15.92 -55.03,15.84 -21.71,0 -43.12,-6.5 -59.18,-18.92 -51.95,-39.17 -70.93,-116.32 -84.56,-193.55 -27.13,-148.88 -51.61,-355.85 -79.14,-507.38 -2.65,-14.58 -16.57,-24.2 -31.14,-21.55 -14.55,2.63 -24.17,16.55 -21.54,31.12 27.13,148.94 51.61,355.93 79.14,507.44 14.57,77.37 32.13,169.3 104.58,226.25 26.97,20.84 59.8,30.13 91.85,30.13 30.33,-0.06 60.37,-8.28 85.21,-25.19 24.84,-16.71 44.33,-43.48 49.1,-76.88 33.54,-228.24 52.09,-458.62 55.53,-689.37 0.14,-13.15 0.28,-26.42 0.28,-39.69 -0.08,-89.08 -5.85,-181.72 -42.97,-267.58 -44.05,-100.49 -140.17,-182.77 -245.81,-211.68 -119.55,-32.19 -257.99,-40.89 -399.75,-40.97 -121.61,0 -245.65,6.58 -361.49,11.13 -14.77,0.59 -26.26,13.02 -25.69,27.78 0.57,14.77 12.99,26.26 27.78,25.69z"/>
   <path class="fil8" d="M11524.18 17636.5c0,0 113.13,210.34 227.68,421.46 57.24,105.64 114.92,211.4 159.02,291.28 22.05,39.9 40.69,73.36 54.3,97.13 6.78,11.92 12.37,21.4 16.49,28.34l5.5 8.62 2.63 3.65 2.23 2.57 6.92 5.36c12.99,7 29.25,2.15 36.26,-10.85 7.06,-12.99 2.2,-29.19 -10.79,-36.25l-11.98 22.19 18.18 -17.5 -6.21 -4.69 -11.98 22.19 18.18 -17.5 -9.85 9.43 11.15 -7.91 -1.3 -1.52 -9.85 9.43 11.15 -7.91c-2.01,-2.65 -12.79,-20.77 -27.19,-46.42 -51.39,-90.83 -159.87,-290.18 -255.38,-466.47 -47.67,-88.21 -92.22,-170.72 -124.83,-231.19 -32.53,-60.45 -53.09,-98.69 -53.17,-98.85 -7,-12.99 -23.26,-17.82 -36.25,-10.85 -13,7.01 -17.92,23.21 -10.93,36.26z"/>
   <path class="fil8" d="M11125.22 17880.4c-57.32,181.35 -193.13,311.38 -365.13,409.1 -171.73,97.49 -378.27,161.3 -570.41,209.41 -388.85,97.55 -1408.53,276.98 -1456.04,285.04 -14.58,2.51 -24.42,16.34 -21.91,30.91 2.49,14.57 16.32,24.34 30.89,21.91 48.82,-8.36 1066.8,-187.34 1460.05,-285.91 194.21,-48.75 404.89,-113.33 583.9,-214.84 178.7,-101.34 327.02,-241.09 389.76,-439.5 4.43,-14.07 -3.44,-29.12 -17.48,-33.61 -14.06,-4.43 -29.13,3.42 -33.62,17.48z"/>
   <path class="fil8" d="M9085.49 18743.42c0,0 -305.12,-989.15 -423.46,-1471.77 19,472.99 59.24,1038.76 71.61,1511.95l351.86 -40.18z"/>
   <path class="fil8" d="M8636.99 17265.66c19.62,-0.65 66.95,-4.86 115.05,-9.13 47.66,-4.29 96.2,-8.58 112.04,-9.08 524.6,-18.19 1048.16,-55.01 1567.69,-133.67 156.73,-23.77 314.53,-50.74 468.7,-50.74 76.09,0 151.16,6.56 224.97,23.04l0.2 0.08 62.52 13.62 5.73 -26.12 -6.16 26.06c480.91,112.2 905.07,530.28 1042.75,1005.42l25.69 -7.43 -26.76 0.85 0.08 2.37 -1.3 13.98c-4.06,22.28 -15.75,39.48 -32.69,52.1 -16.83,12.56 -38.89,19.7 -61.3,19.7 -18.49,0 -37.05,-4.78 -53.53,-14.86 -67.51,-41.17 -151.09,-97.13 -217.67,-142.66 -66.6,-45.61 -115.98,-80.64 -116.12,-80.72 -12.07,-8.56 -28.77,-5.71 -37.33,6.29 -8.5,12.06 -5.71,28.75 6.35,37.33 0.29,0.2 199.06,141.31 336.87,225.46 25.41,15.5 53.73,22.7 81.43,22.7 33.62,-0.08 66.44,-10.51 93.2,-30.27 26.71,-19.62 47.12,-49.38 53.47,-85.72 1.36,-7.63 2.15,-15.42 2.15,-23.32l-0.08 -4.15 -1.08 -6.58c-144.24,-494.53 -579.6,-924.32 -1081.84,-1042.58l-0.43 -0.08 -62.51 -13.7 0.14 0.06c-78.51,-17.62 -157.6,-24.4 -236.74,-24.4 -160.38,0.06 -320.67,27.76 -476.7,51.38 -516.72,78.15 -1038.25,114.91 -1561.47,133.11 -19.62,0.65 -66.87,4.94 -114.97,9.21 -47.68,4.21 -96.22,8.5 -112.06,9 -14.77,0.43 -26.32,12.77 -25.89,27.54 0.48,14.79 12.85,26.42 27.61,25.91z"/>
   <path class="fil18" d="M6827.35 18828.35c6.29,196.27 18.99,441.51 28.26,660.62l0.08 1.92c4.35,102.49 -77.65,187.85 -180.22,187.85l-2829.24 0c-124.18,0 -215.97,-115.4 -188.42,-236.44l0.51 -2.51c160.86,-707 323.6,-1508.15 464.41,-2218.37 119.48,-602.17 354.86,-1134.54 957.1,-1385.75 763.03,-318.32 1428.27,92.78 1899.62,687.44 216.11,272.64 397.4,491.6 639.92,740.97 348.14,-1.92 661.32,-21.12 1009.63,-29.82l16.05 4.64c65.45,521.15 99.56,1046.24 101.99,1571.47l5.29 31.4c-487.76,75.65 -979.31,119.18 -1485.61,113.69 -136.38,-1.43 -310.39,-62.87 -439.36,-127.11z"/>
   <path class="fil19" d="M8629.36 17235.68l-294.43 11.21c82.72,535.16 91.79,1246.72 75.45,1643.75 110.9,-12.85 211.19,-26.74 324.11,-44.39 -25.98,-615.78 -63.88,-1262.64 -105.13,-1610.57z"/>
   <path class="fil8" d="M8739.25 18800.51c-459.27,71.24 -921.62,113.84 -1396.38,113.84 -28.18,0 -56.45,-0.22 -84.79,-0.5 -148.8,-1.58 -297.17,-37.7 -430.72,-103.49 -47.1,-23.35 -92.42,-50.31 -135.25,-80.8 -113.48,-80.78 -210.04,-185.56 -306.61,-291.05 -351.01,-382.98 -701.95,-765.9 -1052.95,-1148.8 -9.98,-10.92 -26.91,-11.63 -37.82,-1.64 -10.87,10 -11.63,26.91 -1.64,37.82 351,382.92 701.93,765.83 1052.94,1148.73 96.71,105.57 195.48,213.34 315.02,298.55 45.2,32.19 92.95,60.59 142.61,85.13 140.66,69.38 296.83,107.35 453.84,109.07 28.49,0.29 56.95,0.51 85.36,0.51 477.99,0 943.18,-42.97 1404.6,-114.49 14.63,-2.28 24.62,-15.91 22.33,-30.54 -2.29,-14.64 -15.9,-24.62 -30.55,-22.34z"/>
   <path class="fil19" d="M6846.21 19434.87c0.63,16.12 1.36,35.1 1.98,55.51 3.5,102.07 -78.15,186.86 -180.28,186.86l-2830.6 0c-124.18,0 -215.97,-115.4 -188.41,-236.44l0.5 -2.43 3196.82 -3.5z"/>
   <path class="fil8" d="M6788.75 18835.19c6.36,197.42 27.98,430.8 37.19,648.92l0 -0.22 0.06 2 0 0.22 0.14 6.56c-0.14,84.22 -68.5,153.17 -153.65,153.31l-2829.25 0c-94.06,-0.14 -166.59,-76.94 -166.59,-166.22 0,-12.29 1.36,-24.84 4.29,-37.47l0.57 -2.43c160.88,-707.59 323.68,-1508.88 464.57,-2219.16 59.3,-299.34 147.36,-579.82 293.9,-815.56 146.74,-235.76 351.22,-427.17 647.2,-550.78 179.86,-75.02 353.51,-108.56 520.23,-108.65 528.07,-0.28 992.42,339.16 1348.13,788.1 216.2,272.86 398.34,492.75 641.7,742.91 5.08,5.2 12.08,8.14 19.33,8.14 349.02,-2.01 662.42,-21.06 1010.06,-29.84 14.79,-0.35 26.48,-12.63 26.14,-27.4 -0.37,-14.79 -12.65,-26.48 -27.42,-26.11 -348.93,8.76 -661.91,27.89 -1009.06,29.82l0.14 26.76 19.2 -18.69c-241.72,-248.44 -422.22,-466.35 -638.14,-738.84 -361.07,-455.41 -837.62,-808 -1390.1,-808.34 -174.01,0 -354.94,35.18 -540.87,112.76 -306.24,127.68 -520.57,328.09 -672.02,571.9 -151.53,243.81 -240.87,530.57 -300.98,833.39 -140.8,710.08 -303.53,1511.02 -464.27,2217.68l-0.5 2.43c-3.79,16.54 -5.63,33.1 -5.63,49.38 0.21,118.33 95.78,219.61 220.1,219.75l2829.25 0c114.77,-0.08 207.18,-93 207.18,-206.84l-0.22 -8.84 0.08 0.2 -0.08 -1.99 -0.06 -0.22c-9.29,-219.89 -30.91,-453.34 -37.11,-648.33 -0.5,-14.79 -12.85,-26.42 -27.63,-25.91 -14.78,0.5 -26.34,12.85 -25.9,27.61z"/>
   <path class="fil8" d="M5347.82 17570.58l-14.84 7.2 -8.58 19.84c0.43,9.56 3.14,12.63 4.51,15.2l7.27 8.72c8.5,8.14 22.05,18.55 41.62,33.04 135.25,99.5 538.92,366.07 539.15,366.27 12.34,8.15 28.97,4.71 37.1,-7.55 8.14,-12.37 4.72,-28.99 -7.57,-37.13 -0.14,-0.06 -36.25,-23.91 -90.63,-60.08 -81.57,-54.32 -203.97,-136.18 -305.82,-206.06 -50.9,-34.9 -96.72,-66.8 -129.54,-90.57 -16.34,-11.92 -29.56,-21.77 -38.12,-28.75l-8.86 -7.51 -0.63 -0.64 -8.44 7.85 9.57 -6.36 -1.13 -1.49 -8.44 7.85 9.57 -6.36 -20.41 13.58 24.34 0c-0.57,-9.99 -3.28,-11.92 -3.93,-13.58l-20.41 13.58 24.34 0 -26.2 0 17.98 19.06 8.22 -19.06 -26.2 0 17.98 19.06 -17.76 -18.85 3.85 25.69 13.92 -6.84 -17.76 -18.85 3.85 25.69c14.65,-2.21 24.7,-15.84 22.49,-30.47 -2.22,-14.63 -15.83,-24.7 -30.48,-22.47z"/>
   <path class="fil20" d="M5973.33 16205.3l-26.77 0c-0.08,50.96 -41.25,92.13 -92.13,92.21 -50.96,-0.08 -92.15,-41.25 -92.21,-92.21 0.06,-50.96 41.25,-92.16 92.21,-92.22 50.88,0.06 92.05,41.26 92.13,92.22l53.53 0c0,-80.5 -65.24,-145.75 -145.66,-145.75 -80.52,0 -145.74,65.25 -145.74,145.75 0,80.49 65.22,145.74 145.74,145.74 80.42,0 145.66,-65.25 145.66,-145.74l-26.76 0z"/>
   <path class="fil20" d="M4664.87 17061.75l-26.77 0c-0.06,50.96 -41.25,92.16 -92.21,92.22 -50.88,-0.06 -92.07,-41.26 -92.21,-92.22 0.14,-50.96 41.33,-92.13 92.21,-92.21 50.96,0.08 92.15,41.25 92.21,92.21l53.53 0c0,-80.49 -65.22,-145.74 -145.74,-145.74 -80.44,0 -145.66,65.25 -145.66,145.74 0,80.52 65.22,145.75 145.66,145.75 80.52,0 145.74,-65.23 145.74,-145.75l-26.76 0z"/>
   <path class="fil20" d="M6823.86 17043.9l-26.77 0c-0.06,50.96 -41.25,92.16 -92.19,92.22 -50.9,-0.06 -92.07,-41.26 -92.22,-92.22 0.15,-50.95 41.32,-92.13 92.22,-92.21 50.94,0.08 92.13,41.26 92.19,92.21l53.53 0c0,-80.49 -65.23,-145.72 -145.72,-145.72 -80.44,0 -145.68,65.23 -145.68,145.72 0,80.52 65.24,145.75 145.68,145.75 80.49,0 145.72,-65.23 145.72,-145.75l-26.76 0z"/>
   <path class="fil20" d="M6889.3 18518.95l-26.77 0c-0.14,50.88 -41.31,92.08 -92.21,92.14 -50.88,-0.06 -92.05,-41.26 -92.2,-92.14 0.15,-50.96 41.32,-92.15 92.2,-92.21 50.9,0.06 92.07,41.25 92.21,92.21l53.47 0c0,-80.51 -65.17,-145.74 -145.68,-145.74 -80.5,0 -145.66,65.23 -145.73,145.74 0.07,80.44 65.23,145.67 145.73,145.67 80.51,0 145.68,-65.23 145.68,-145.67l-26.7 0z"/>
   <path class="fil20" d="M7757.61 17632.73l-26.76 0c-0.06,50.95 -41.26,92.15 -92.13,92.21 -50.96,-0.06 -92.14,-41.26 -92.22,-92.21 0.08,-50.94 41.26,-92.14 92.22,-92.2 50.87,0.06 92.07,41.26 92.13,92.2l53.53 0c0,-80.5 -65.23,-145.73 -145.66,-145.73 -80.5,0 -145.75,65.23 -145.75,145.73 0,80.51 65.25,145.74 145.75,145.74 80.43,0 145.66,-65.23 145.66,-145.74l-26.77 0z"/>
   <path class="fil19" d="M6831.7 17664.49c0,48.19 -39.03,87.21 -87.14,87.21 -48.16,0 -87.21,-39.02 -87.21,-87.21 0,-48.17 39.05,-87.22 87.21,-87.22 48.11,0 87.14,39.05 87.14,87.22z"/>
   <path class="fil19" d="M4395.22 18283c0,48.17 -39.05,87.21 -87.22,87.21 -48.16,0 -87.21,-39.04 -87.21,-87.21 0,-48.11 39.05,-87.13 87.21,-87.13 48.17,0 87.22,39.02 87.22,87.13z"/>
   <path class="fil19" d="M5156.55 18021.28c0,48.23 -39.11,87.28 -87.22,87.28 -48.16,0 -87.21,-39.05 -87.21,-87.28 0,-48.1 39.05,-87.15 87.21,-87.15 48.11,0 87.22,39.05 87.22,87.15z"/>
   <path class="fil19" d="M6060.54 18925.34c0,48.17 -39.04,87.22 -87.21,87.22 -48.11,0 -87.22,-39.05 -87.22,-87.22 0,-48.11 39.11,-87.13 87.22,-87.13 48.17,0 87.21,39.02 87.21,87.13z"/>
   <path class="fil19" d="M6631.52 19115.7c0,48.16 -39.05,87.21 -87.22,87.21 -48.11,0 -87.21,-39.05 -87.21,-87.21 0,-48.11 39.1,-87.16 87.21,-87.16 48.17,0 87.22,39.05 87.22,87.16z"/>
   <path class="fil19" d="M4252.49 19115.7c0,48.16 -39.05,87.21 -87.21,87.21 -48.19,0 -87.22,-39.05 -87.22,-87.21 0,-48.11 39.03,-87.16 87.22,-87.16 48.16,0 87.21,39.05 87.21,87.16z"/>
   <path class="fil19" d="M6357.94 16419.4c0,48.17 -39.05,87.22 -87.22,87.22 -48.16,0 -87.21,-39.05 -87.21,-87.22 0,-48.16 39.05,-87.21 87.21,-87.21 48.17,0 87.22,39.05 87.22,87.21z"/>
   <path class="fil19" d="M5037.57 16312.37c0,48.16 -39.05,87.19 -87.22,87.19 -48.16,0 -87.21,-39.03 -87.21,-87.19 0,-48.19 39.05,-87.22 87.21,-87.22 48.17,0 87.22,39.03 87.22,87.22z"/>
   <path class="fil19" d="M7731.86 18489.19c0,48.17 -39.05,87.22 -87.22,87.22 -48.16,0 -87.21,-39.05 -87.21,-87.22 0,-48.18 39.05,-87.21 87.21,-87.21 48.17,0 87.22,39.03 87.22,87.21z"/>
   <path class="fil20" d="M8233.45 18417.81l-26.77 0c-0.06,50.96 -41.25,92.14 -92.21,92.22 -50.88,-0.08 -92.07,-41.26 -92.22,-92.22 0.15,-50.95 41.34,-92.13 92.22,-92.21 50.96,0.08 92.15,41.26 92.21,92.21l53.53 0c0,-80.49 -65.25,-145.74 -145.74,-145.74 -80.44,0 -145.66,65.25 -145.66,145.74 0,80.5 65.22,145.75 145.66,145.75 80.49,0 145.74,-65.25 145.74,-145.75l-26.76 0z"/>
   <path class="fil20" d="M5830.57 17109.35l-26.76 0c-0.06,50.82 -41.26,92.08 -92.14,92.16 -50.96,-0.08 -92.13,-41.26 -92.21,-92.16 0.08,-50.96 41.25,-92.13 92.21,-92.21 50.88,0.08 92.08,41.25 92.14,92.21l53.53 0c0,-80.49 -65.23,-145.72 -145.67,-145.72 -80.49,0 -145.74,65.23 -145.74,145.72 0,80.44 65.25,145.67 145.74,145.67 80.44,0 145.67,-65.23 145.67,-145.67l-26.77 0z"/>
   <path class="fil20" d="M5830.57 18203.71l-26.76 0c-0.06,50.94 -41.26,92.13 -92.14,92.21 -50.96,-0.08 -92.13,-41.27 -92.21,-92.21 0.08,-50.96 41.25,-92.16 92.21,-92.22 50.88,0.06 92.08,41.26 92.14,92.22l53.53 0c0,-80.52 -65.23,-145.75 -145.67,-145.75 -80.49,0 -145.74,65.23 -145.74,145.75 0,80.49 65.25,145.72 145.74,145.72 80.44,0 145.67,-65.23 145.67,-145.72l-26.77 0z"/>
   <path class="fil20" d="M5188.23 18893.66l-26.76 0c-0.07,50.79 -41.26,92.05 -92.14,92.13 -50.96,-0.08 -92.13,-41.25 -92.21,-92.13 0.08,-50.96 41.25,-92.16 92.21,-92.22 50.88,0.06 92.07,41.26 92.14,92.22l53.52 0c0,-80.52 -65.22,-145.75 -145.66,-145.75 -80.49,0 -145.74,65.23 -145.74,145.75 0,80.41 65.25,145.66 145.74,145.66 80.44,0 145.66,-65.25 145.66,-145.66l-26.76 0z"/>
   <path class="fil8" d="M8764.88 18810.23c-2.43,-526.3 -36.62,-1052.45 -102.21,-1574.61 -1.86,-14.72 -15.2,-25.13 -29.9,-23.27 -14.63,1.87 -25.04,15.28 -23.2,29.91 65.31,520.08 99.36,1044.02 101.78,1568.25 0.06,14.77 12.07,26.68 26.91,26.62 14.77,-0.08 26.68,-12.14 26.62,-26.9z"/>
   <path class="fil21" d="M11359.45 9674.78l34.7 -8.36c-11.07,-45.81 -16.42,-94.19 -16.42,-143.8 -0.14,-161.95 57.45,-337.23 153.59,-478.47 96.14,-141.54 229.75,-247.88 378.27,-278.93 76.38,-16.12 160.52,-19.84 244.59,-30.97 83.94,-11.22 168.88,-30.13 244.01,-80.93 68.02,-45.97 113.98,-107.35 144.96,-175.5 46.53,-102.49 61.6,-220.18 75.16,-337.66 13.28,-117.48 24.98,-235.02 59.24,-335.8 49.6,-145.96 154.38,-263.51 287.63,-345.02 133.1,-81.49 294.21,-126.18 452.29,-126.1 27.19,0 54.3,1.27 81.15,3.98 174.91,17.56 299.88,100.72 407.66,216.13 107.49,115.32 194.79,262.71 288.06,401.03 146.75,216.98 381.28,380.13 646.34,414.97 28.91,3.78 57.52,5.42 85.72,5.42 119.69,-0.08 233.03,-29.7 343.29,-58.1 110.27,-28.55 217.54,-55.88 324.81,-55.82 20.78,0 41.56,1.01 62.4,3.22 186.27,19.56 358.42,118.41 483.81,260.08 125.42,141.67 203.14,325.38 203.07,511.75 0,18.12 -0.79,36.26 -2.2,54.38 -1.5,17.7 10.42,33.89 27.75,37.75 17.34,3.85 35.04,-5.78 41.26,-22.41 27.55,-73.67 78.85,-127.82 145.38,-164.95 66.44,-36.96 148.03,-55.88 231.89,-55.79 108.77,-0.09 220.75,31.82 307.11,92.35 225.46,157.08 337.09,438.01 436.43,709.92l33.55 -12.35 0 -35.69 -6205.48 0 0 35.69 34.7 -8.36 -34.7 8.36 0 35.69 6205.48 0c11.63,0 22.55,-5.65 29.27,-15.2 6.64,-9.65 8.2,-21.76 4.21,-32.77 -100.21,-271.85 -213.48,-568.61 -462.49,-743.77 -100.43,-70.14 -225.62,-105.2 -348.08,-105.26 -94.36,0.06 -187.5,20.91 -266.56,64.8 -78.94,43.68 -143.82,111.49 -177.65,202.42l33.46 12.48 35.55 2.86c1.64,-20.05 2.51,-40.1 2.51,-60.15 -0.14,-206.33 -85.29,-405.54 -220.97,-558.99 -135.83,-153.45 -323.03,-261.94 -529.79,-283.77 -23.49,-2.5 -46.82,-3.64 -69.89,-3.64 -119.32,0.06 -232.46,29.68 -342.71,58.08 -110.26,28.55 -217.75,55.96 -325.39,55.82 -25.41,0 -50.88,-1.5 -76.52,-4.78 -241.38,-31.33 -460.2,-182.36 -596.38,-384.19 -91.85,-135.76 -180.36,-286.36 -294.98,-409.69 -114.26,-123.25 -257.67,-219.47 -452.86,-238.58 -29.25,-2.86 -58.73,-4.29 -88.21,-4.29 -171.44,0.08 -344.52,47.96 -489.53,136.6 -144.89,88.57 -262.16,218.68 -317.98,382.99 -50.23,149.1 -54.16,316.62 -77.37,464.77 -11.41,74.09 -27.39,143.03 -54.3,201.99 -27.04,59.02 -64.17,108.06 -120.13,146.03 -60.65,41.17 -133.47,58.73 -213.4,69.29 -79.78,10.71 -165.65,14.29 -249.87,31.91 -172.29,36.4 -318.75,156.02 -422.57,308.61 -103.71,152.88 -165.82,339.94 -165.96,518.58 0,54.75 5.87,108.71 18.42,160.58 3.93,16.06 18.19,27.27 34.68,27.27l0 -35.69z"/>
   <path class="fil21" d="M13934.34 26771.01l41.82 11.08c84,-320.03 378.41,-557.48 673.46,-556.51 11.78,0 23.54,0.45 35.32,1.18 48.39,2.89 101.57,12.26 157.95,12.4 35.55,0 72.73,-3.92 109.85,-17.11 71.02,-24.92 122.74,-73.89 157.22,-133.12 51.97,-89.08 70.81,-200.42 83.71,-314.82 12.65,-114.41 18.35,-232.61 36.62,-332.1 51.02,-281.76 269.87,-511.65 520.03,-589.17 75.56,-23.47 153.51,-34.62 232.09,-34.62 182.49,-0.06 368.27,60.31 528.93,163.53 113.27,72.29 226.76,210.97 309.34,364.71 82.98,153.37 135.39,322.29 135.03,449.56 0,30.33 -2.92,58.25 -8.65,82.81 -2.85,11.53 -7.12,16.52 -12.71,20.73 -5.62,4.07 -13.78,6.72 -23.12,6.72 -11.49,0.08 -23.61,-4.29 -30.97,-10.71 -7.43,-6.63 -11.27,-12.99 -11.64,-25.83l0.14 -3.91c3.93,-50.63 27.5,-109.79 61.24,-164.09 33.63,-54.4 77.17,-104.14 116.84,-137.54 58.73,-49.75 133.1,-74.94 207.75,-74.94 73.24,0 146.03,24.19 204.13,72.15 90.21,73.74 146.45,197.56 205.32,325.52 59.46,127.14 121.98,259.59 243.89,340.01 79.42,52.11 166.22,68.95 251.72,68.91 168.37,-0.87 338.73,-60.47 492.47,-59.7 22.9,0 45.46,1.29 67.51,4.09 115.28,14.49 224.61,80.49 306.46,177.34 81.79,96.79 135.13,223.48 140.27,355.14l43.24 -1.7 0 -43.23 -5275.28 0 0 43.23 41.82 11.08 -41.82 -11.08 0 43.24 5275.28 0c11.72,0 23.06,-4.83 31.12,-13.27 8.15,-8.48 12.5,-19.99 12.08,-31.67 -6.22,-152.74 -67.09,-296.63 -160.66,-407.47 -93.57,-110.79 -220.77,-189.43 -361.65,-207.41 -26.12,-3.34 -52.3,-4.72 -78.35,-4.72 -173.93,0.73 -345.01,60.39 -492.47,59.6 -74.94,-0.12 -141.96,-13.98 -204.4,-54.74 -95.14,-61.44 -154.3,-176.92 -212.77,-304.01 -59.01,-126.19 -116.89,-262.75 -228.73,-355.82 -74.52,-61.52 -167.02,-91.91 -259.17,-91.91 -93.92,0 -188.27,31.6 -263.58,95.35 -47.52,40.25 -95.78,95.56 -134.52,158.01 -38.54,62.52 -68.02,132.05 -73.89,202.64l-0.42 10.91c-0.37,37.98 17.41,71.54 42.32,91.99 24.99,20.86 55.74,30.92 86.71,30.98 25.07,0 51.04,-6.82 73.45,-22.74 22.35,-15.78 39.83,-41.28 46.69,-71.68 7.41,-32.17 10.77,-66.44 10.77,-102.28 -0.34,-149.5 -57.52,-327.24 -145.3,-490.6 -88.28,-163.15 -206.84,-311.32 -338.73,-396.47 -173.13,-111.11 -374.06,-177.15 -575.69,-177.21 -86.71,0 -173.43,12.29 -257.79,38.61 -281.35,88 -521.09,340.08 -579.32,656.12 -26.05,143.52 -27.63,308.69 -52.59,444.87 -12.29,68 -30.35,128.17 -57.26,173.78 -27.25,45.83 -61.16,77.23 -111.69,95.43 -24.9,8.93 -51.59,12.21 -80.86,12.21 -46.25,0.06 -97.84,-8.73 -152.44,-12.31 -13.64,-0.83 -27.27,-1.27 -40.83,-1.27 -341.02,1.09 -662.12,264.59 -757.04,620.79 -3.42,13 -0.65,26.85 7.49,37.48 8.21,10.64 20.85,16.82 34.27,16.82l0 -43.24z"/>
   <path class="fil21" d="M-0 7881.97c29.14,-5.73 58.11,-13.38 86.77,-23.45 117.97,-41.4 212.11,-117.6 286.36,-208.97 74.31,-91.36 129.38,-198.06 170.66,-303.26 81.77,-209.47 128.49,-426.8 251.11,-602.88 156.26,-226.02 442.64,-374.84 734.81,-380.04l17.04 -0.15c286.47,-0.28 571.19,136.53 734.11,352.3 73.53,96.84 128.09,213.47 192.75,325.1 64.7,111.41 140.55,218.82 259.94,291.41 59.03,35.33 145.74,55.96 249.37,72.6 155.03,24.39 346.86,36.68 520.53,51.24 86.77,7.26 168.93,15.12 238.94,25.1 69.95,9.86 128.17,22.36 164.59,36.99 228.6,90.77 433.64,285.12 529.15,494.45 97.05,211.76 157.44,404.32 193.41,543.64 18.04,69.66 29.97,125.98 37.33,164.81 3.71,19.4 6.28,34.39 7.91,44.47 1.66,10.06 2.29,15 2.29,15l35.41 -4.86 0 -35.69 -4712.47 0 0 71.38 4712.41 0c10.34,0 20.1,-4.43 26.9,-12.22 6.78,-7.78 9.84,-18.05 8.48,-28.27 -0.34,-2.28 -48.39,-355 -246.72,-787.93 -105.06,-228.33 -320.97,-432.3 -567.69,-531.09 -62.03,-24.4 -151.31,-38.89 -256.8,-50.94 -157.72,-17.78 -350,-28.49 -521.07,-46.19 -85.44,-8.79 -165.52,-19.34 -232.61,-33.12 -66.95,-13.64 -121.12,-31.18 -152.32,-50.37 -103.57,-62.88 -172.55,-158.17 -235.24,-266.22 -62.68,-107.7 -118.03,-227.1 -197.57,-332.38 -178.66,-235.37 -482.21,-380.33 -791.02,-380.55l-18.37 0.14c-315.15,6.21 -620.6,163.93 -792.16,410.74 -132.7,192.13 -179.35,415.89 -258.89,617.51 -39.35,100.41 -91.52,200.7 -159.58,284.28 -68.14,83.63 -151.49,150.43 -254.63,186.63 -20.7,7.26 -41.77,13.17 -63.13,17.88l0 72.94z"/>
   <path class="fil22" d="M44535.94 27168.13c0,1393.09 -1129.39,2522.48 -2522.48,2522.48l2522.48 0 0 -2522.48z"/>
   <path class="fil22" d="M42013.46 0c1393.09,0 2522.48,1129.39 2522.48,2522.56l0 -2522.56 -2522.48 0z"/>
  </g>
 </g>
</svg>
